<?xml version="1.0" encoding="utf-8"?>
<!-- Generator: Adobe Illustrator 19.0.0, SVG Export Plug-In . SVG Version: 6.00 Build 0)  -->
<svg version="1.1" id="Layer_1" xmlns="http://www.w3.org/2000/svg" xmlns:xlink="http://www.w3.org/1999/xlink" x="0px" y="0px"
	 width="792px" height="911.1px" viewBox="0 0 792 911.1" style="enable-background:new 0 0 792 911.1;" xml:space="preserve">
<style type="text/css">
	.st0{fill:none;stroke:#000000;stroke-miterlimit:10;}
</style>
<g id="page-1">
	<g id="stave-4">
		<rect id="staff_3_" x="39.2" y="590.1" class="st0" width="716" height="111.8"/>
		<g id="events_3_">
			<line class="st0" x1="735" y1="605.3" x2="739" y2="647.3"/>
			<line class="st0" x1="731.8" y1="605.4" x2="735.8" y2="647"/>
			<line class="st0" x1="728.6" y1="605.5" x2="732.6" y2="646.7"/>
			<line class="st0" x1="725.5" y1="605.6" x2="729.5" y2="646.4"/>
			<line class="st0" x1="722.2" y1="605.7" x2="726.1" y2="646.1"/>
			<line class="st0" x1="719" y1="605.8" x2="723" y2="645.8"/>
			<line class="st0" x1="715.8" y1="605.9" x2="719.8" y2="645.6"/>
			<line class="st0" x1="712.8" y1="606" x2="716.5" y2="645.3"/>
			<line class="st0" x1="709.5" y1="606.2" x2="713.3" y2="645"/>
			<line class="st0" x1="706.3" y1="606.3" x2="710.1" y2="644.7"/>
			<line class="st0" x1="703.1" y1="606.4" x2="707" y2="644.4"/>
			<line class="st0" x1="700" y1="606.5" x2="703.8" y2="644.2"/>
			<line class="st0" x1="696.8" y1="606.6" x2="700.5" y2="643.9"/>
			<line class="st0" x1="674.8" y1="685.4" x2="676.6" y2="675.9"/>
			<line class="st0" x1="671.6" y1="685.5" x2="673.4" y2="675.6"/>
			<line class="st0" x1="668.5" y1="685.6" x2="670.2" y2="675.3"/>
			<line class="st0" x1="665.3" y1="685.8" x2="667" y2="675"/>
			<line class="st0" x1="662.1" y1="685.9" x2="663.8" y2="674.7"/>
			<line class="st0" x1="659" y1="686" x2="660.5" y2="674.5"/>
			<line class="st0" x1="655.8" y1="686.1" x2="657.3" y2="674.2"/>
			<line class="st0" x1="652.5" y1="686.2" x2="654.1" y2="673.9"/>
			<line class="st0" x1="649.3" y1="686.3" x2="650.9" y2="673.6"/>
			<line class="st0" x1="646.2" y1="686.4" x2="647.8" y2="673.3"/>
			<line class="st0" x1="643" y1="686.6" x2="644.5" y2="673"/>
			<line class="st0" x1="639.8" y1="686.7" x2="641.3" y2="672.8"/>
			<line class="st0" x1="636.6" y1="686.8" x2="638.1" y2="672.5"/>
			<line class="st0" x1="633.5" y1="686.9" x2="634.9" y2="672.2"/>
			<line class="st0" x1="630.2" y1="687" x2="631.8" y2="671.9"/>
			<line class="st0" x1="627" y1="687.1" x2="628.5" y2="671.6"/>
			<line class="st0" x1="623.8" y1="687.2" x2="625.3" y2="671.4"/>
			<path class="st0" d="M622,671.1"/>
			<path class="st0" d="M520.3,638.4"/>
			<line class="st0" x1="517.1" y1="638.5" x2="519.8" y2="654.4"/>
			<line class="st0" x1="513.9" y1="638.6" x2="516.5" y2="654.1"/>
			<line class="st0" x1="510.8" y1="638.7" x2="513.3" y2="653.8"/>
			<line class="st0" x1="507.5" y1="638.8" x2="510.1" y2="653.6"/>
			<line class="st0" x1="504.4" y1="638.9" x2="506.9" y2="653.3"/>
			<line class="st0" x1="501.2" y1="639.1" x2="503.8" y2="653"/>
			<line class="st0" x1="498" y1="639.2" x2="500.5" y2="652.7"/>
			<line class="st0" x1="494.9" y1="639.3" x2="497.2" y2="652.4"/>
			<line class="st0" x1="491.6" y1="639.4" x2="494" y2="652.1"/>
			<line class="st0" x1="488.4" y1="639.5" x2="490.9" y2="651.9"/>
			<line class="st0" x1="485.2" y1="639.6" x2="487.6" y2="651.6"/>
			<line class="st0" x1="482.1" y1="639.7" x2="484.4" y2="651.3"/>
			<line class="st0" x1="478.9" y1="639.9" x2="481.2" y2="651"/>
			<line class="st0" x1="475.8" y1="640" x2="478" y2="650.7"/>
			<line class="st0" x1="472.5" y1="640.1" x2="474.9" y2="650.4"/>
			<line class="st0" x1="469.4" y1="640.2" x2="471.6" y2="650.2"/>
			<line class="st0" x1="466.1" y1="640.3" x2="468.4" y2="649.9"/>
			<line class="st0" x1="462.9" y1="640.4" x2="465.2" y2="649.6"/>
			<line class="st0" x1="540.3" y1="667.4" x2="491.3" y2="686.6"/>
			<line class="st0" x1="537.2" y1="667.5" x2="539.5" y2="679.1"/>
			<line class="st0" x1="534" y1="667.7" x2="536.3" y2="678.8"/>
			<line class="st0" x1="530.8" y1="667.8" x2="533.1" y2="678.5"/>
			<line class="st0" x1="527.6" y1="667.9" x2="530" y2="678.2"/>
			<line class="st0" x1="524.5" y1="668" x2="526.8" y2="678"/>
			<line class="st0" x1="521.2" y1="668.1" x2="523.5" y2="677.7"/>
			<line class="st0" x1="462.9" y1="640.4" x2="520.3" y2="677.4"/>
			<line class="st0" x1="459.9" y1="640.5" x2="462" y2="649.3"/>
			<line class="st0" x1="456.6" y1="640.7" x2="458.9" y2="649"/>
			<line class="st0" x1="453.4" y1="640.8" x2="455.5" y2="648.8"/>
			<line class="st0" x1="450.2" y1="640.9" x2="452.4" y2="648.5"/>
			<line class="st0" x1="447" y1="641" x2="449.1" y2="648.2"/>
			<line class="st0" x1="443.9" y1="641.1" x2="445.9" y2="647.9"/>
			<line class="st0" x1="440.6" y1="641.2" x2="442.8" y2="647.6"/>
			<line class="st0" x1="437.4" y1="641.3" x2="439.5" y2="647.3"/>
			<line class="st0" x1="434.4" y1="641.4" x2="436.4" y2="647.1"/>
			<line class="st0" x1="431.1" y1="641.6" x2="433.1" y2="646.8"/>
			<line class="st0" x1="427.9" y1="641.7" x2="429.9" y2="646.5"/>
			<line class="st0" x1="424.8" y1="641.8" x2="426.8" y2="646.2"/>
			<line class="st0" x1="421.5" y1="641.9" x2="423.5" y2="645.9"/>
			<line class="st0" x1="418.4" y1="642" x2="420.4" y2="645.7"/>
			<line class="st0" x1="415.1" y1="642.1" x2="417.1" y2="645.4"/>
			<line class="st0" x1="412" y1="642.2" x2="413.9" y2="645.1"/>
			<line class="st0" x1="408.9" y1="642.4" x2="410.6" y2="644.8"/>
			<line class="st0" x1="405.6" y1="642.5" x2="407.4" y2="644.5"/>
			<line class="st0" x1="402.4" y1="642.6" x2="404.2" y2="644.2"/>
			<line class="st0" x1="399.2" y1="642.7" x2="401" y2="644"/>
			<line class="st0" x1="396" y1="642.8" x2="397.9" y2="643.7"/>
			<line class="st0" x1="392.9" y1="642.9" x2="394.6" y2="643.4"/>
			<line class="st0" x1="389.8" y1="643" x2="391.4" y2="643.1"/>
			<line class="st0" x1="386.5" y1="643.1" x2="388.2" y2="642.8"/>
			<line class="st0" x1="383.4" y1="643.3" x2="385" y2="642.6"/>
			<line class="st0" x1="380.1" y1="643.4" x2="381.9" y2="642.3"/>
			<line class="st0" x1="376.9" y1="643.5" x2="378.6" y2="642"/>
			<line class="st0" x1="373.8" y1="643.6" x2="375.4" y2="641.7"/>
			<line class="st0" x1="370.5" y1="643.7" x2="372.1" y2="641.4"/>
			<line class="st0" x1="367.4" y1="643.8" x2="368.9" y2="641.1"/>
			<line class="st0" x1="364.2" y1="643.9" x2="365.8" y2="640.9"/>
			<line class="st0" x1="361" y1="644.1" x2="362.5" y2="640.6"/>
			<line class="st0" x1="357.9" y1="644.2" x2="359.4" y2="640.3"/>
			<line class="st0" x1="354.6" y1="644.3" x2="356.1" y2="640"/>
			<line class="st0" x1="351.4" y1="644.4" x2="352.9" y2="639.7"/>
			<line class="st0" x1="348.2" y1="644.5" x2="349.8" y2="639.5"/>
			<line class="st0" x1="345" y1="644.6" x2="346.5" y2="639.2"/>
			<line class="st0" x1="341.9" y1="644.7" x2="343.4" y2="638.9"/>
			<line class="st0" x1="338.8" y1="644.9" x2="340.1" y2="638.6"/>
			<line class="st0" x1="335.5" y1="645" x2="336.9" y2="638.3"/>
			<line class="st0" x1="332.4" y1="645.1" x2="333.6" y2="638"/>
			<line class="st0" x1="329.1" y1="645.2" x2="330.4" y2="637.8"/>
			<line class="st0" x1="325.9" y1="645.3" x2="327.2" y2="637.5"/>
			<line class="st0" x1="322.8" y1="645.4" x2="324" y2="637.2"/>
			<line class="st0" x1="319.6" y1="645.5" x2="320.9" y2="636.9"/>
			<line class="st0" x1="316.4" y1="645.6" x2="317.6" y2="636.6"/>
			<line class="st0" x1="313.2" y1="645.8" x2="314.4" y2="636.4"/>
			<line class="st0" x1="310" y1="645.9" x2="311.2" y2="636.1"/>
			<line class="st0" x1="306.9" y1="646" x2="308" y2="635.8"/>
			<line class="st0" x1="303.6" y1="646.1" x2="304.9" y2="635.5"/>
			<line class="st0" x1="300.4" y1="646.2" x2="301.6" y2="635.2"/>
			<line class="st0" x1="297.2" y1="646.3" x2="298.4" y2="634.9"/>
			<line class="st0" x1="294.1" y1="646.4" x2="295.1" y2="634.7"/>
			<line class="st0" x1="290.9" y1="646.6" x2="291.9" y2="634.4"/>
			<path class="st0" d="M282.2,662.9"/>
			<line class="st0" x1="279" y1="663" x2="281.6" y2="678.9"/>
			<line class="st0" x1="275.8" y1="663.1" x2="278.4" y2="678.6"/>
			<line class="st0" x1="272.6" y1="663.2" x2="275.2" y2="678.3"/>
			<line class="st0" x1="269.4" y1="663.3" x2="272" y2="678.1"/>
			<line class="st0" x1="266.3" y1="663.4" x2="268.8" y2="677.8"/>
			<line class="st0" x1="263.1" y1="663.6" x2="265.6" y2="677.5"/>
			<line class="st0" x1="259.9" y1="663.7" x2="262.4" y2="677.2"/>
			<line class="st0" x1="256.7" y1="663.8" x2="259.1" y2="676.9"/>
			<line class="st0" x1="253.5" y1="663.9" x2="255.9" y2="676.6"/>
			<line class="st0" x1="250.3" y1="664" x2="252.7" y2="676.4"/>
			<line class="st0" x1="247.1" y1="664.1" x2="249.5" y2="676.1"/>
			<line class="st0" x1="244" y1="664.2" x2="246.3" y2="675.8"/>
			<line class="st0" x1="240.8" y1="664.4" x2="243.1" y2="675.5"/>
			<line class="st0" x1="237.6" y1="664.5" x2="239.9" y2="675.2"/>
			<line class="st0" x1="234.4" y1="664.6" x2="236.7" y2="674.9"/>
			<line class="st0" x1="231.2" y1="664.7" x2="233.5" y2="674.7"/>
			<line class="st0" x1="228" y1="664.8" x2="230.3" y2="674.4"/>
			<line class="st0" x1="224.8" y1="664.9" x2="227.1" y2="674.1"/>
			<line class="st0" x1="224.8" y1="664.9" x2="282.2" y2="701.9"/>
			<line class="st0" x1="221.7" y1="665" x2="223.9" y2="673.8"/>
			<line class="st0" x1="218.5" y1="665.2" x2="220.7" y2="673.5"/>
			<line class="st0" x1="215.3" y1="665.3" x2="217.4" y2="673.3"/>
			<line class="st0" x1="212.1" y1="665.4" x2="214.2" y2="673"/>
			<line class="st0" x1="208.9" y1="665.5" x2="211" y2="672.7"/>
			<line class="st0" x1="205.7" y1="665.6" x2="207.8" y2="672.4"/>
			<line class="st0" x1="202.5" y1="665.7" x2="204.6" y2="672.1"/>
			<line class="st0" x1="199.3" y1="665.8" x2="201.4" y2="671.8"/>
			<line class="st0" x1="196.2" y1="665.9" x2="198.2" y2="671.6"/>
			<line class="st0" x1="193" y1="666.1" x2="195" y2="671.3"/>
			<line class="st0" x1="189.8" y1="666.2" x2="191.8" y2="671"/>
			<line class="st0" x1="186.6" y1="666.3" x2="188.6" y2="670.7"/>
			<line class="st0" x1="183.4" y1="666.4" x2="185.4" y2="670.4"/>
			<line class="st0" x1="180.2" y1="666.5" x2="182.2" y2="670.2"/>
			<line class="st0" x1="177" y1="666.6" x2="179" y2="669.9"/>
			<line class="st0" x1="173.9" y1="666.7" x2="175.7" y2="669.6"/>
			<line class="st0" x1="170.7" y1="666.9" x2="172.5" y2="669.3"/>
			<line class="st0" x1="167.5" y1="667" x2="169.3" y2="669"/>
			<line class="st0" x1="164.3" y1="667.1" x2="166.1" y2="668.7"/>
			<line class="st0" x1="161.1" y1="667.2" x2="162.9" y2="668.5"/>
			<line class="st0" x1="157.9" y1="667.3" x2="159.7" y2="668.2"/>
			<line class="st0" x1="154.7" y1="667.4" x2="156.5" y2="667.9"/>
			<line class="st0" x1="151.6" y1="667.5" x2="153.3" y2="667.6"/>
			<line class="st0" x1="148.4" y1="667.6" x2="150.1" y2="667.3"/>
			<line class="st0" x1="145.2" y1="667.8" x2="146.9" y2="667.1"/>
			<line class="st0" x1="142" y1="667.9" x2="143.7" y2="666.8"/>
			<line class="st0" x1="138.8" y1="668" x2="140.5" y2="666.5"/>
			<line class="st0" x1="135.6" y1="668.1" x2="137.2" y2="666.2"/>
			<line class="st0" x1="132.4" y1="668.2" x2="134" y2="665.9"/>
			<line class="st0" x1="129.2" y1="668.3" x2="130.8" y2="665.6"/>
			<line class="st0" x1="126.1" y1="668.4" x2="127.6" y2="665.4"/>
			<line class="st0" x1="122.9" y1="668.6" x2="124.4" y2="665.1"/>
			<line class="st0" x1="119.7" y1="668.7" x2="121.2" y2="664.8"/>
			<line class="st0" x1="116.5" y1="668.8" x2="118" y2="664.5"/>
			<line class="st0" x1="113.3" y1="668.9" x2="114.8" y2="664.2"/>
			<line class="st0" x1="110.1" y1="669" x2="111.6" y2="664"/>
			<line class="st0" x1="106.9" y1="669.1" x2="108.4" y2="663.7"/>
			<line class="st0" x1="103.8" y1="669.2" x2="105.2" y2="663.4"/>
			<line class="st0" x1="100.6" y1="669.4" x2="102" y2="663.1"/>
			<line class="st0" x1="97.4" y1="669.5" x2="98.8" y2="662.8"/>
			<line class="st0" x1="94.2" y1="669.6" x2="95.5" y2="662.5"/>
			<line class="st0" x1="91" y1="669.7" x2="92.3" y2="662.3"/>
			<line class="st0" x1="87.8" y1="669.8" x2="89.1" y2="662"/>
			<line class="st0" x1="84.6" y1="669.9" x2="85.9" y2="661.7"/>
			<line class="st0" x1="81.5" y1="670" x2="82.7" y2="661.4"/>
			<line class="st0" x1="78.3" y1="670.1" x2="79.5" y2="661.1"/>
			<line class="st0" x1="75.1" y1="670.3" x2="76.3" y2="660.9"/>
			<line class="st0" x1="71.9" y1="670.4" x2="73.1" y2="660.6"/>
			<line class="st0" x1="68.7" y1="670.5" x2="69.9" y2="660.3"/>
			<line class="st0" x1="65.5" y1="670.6" x2="66.7" y2="660"/>
			<line class="st0" x1="62.3" y1="670.7" x2="63.5" y2="659.7"/>
			<line class="st0" x1="59.1" y1="670.8" x2="60.3" y2="659.4"/>
			<line class="st0" x1="56" y1="670.9" x2="57" y2="659.2"/>
			<line class="st0" x1="52.8" y1="671.1" x2="53.8" y2="658.9"/>
			<line class="st0" x1="223.4" y1="620.4" x2="224.4" y2="605.8"/>
			<line class="st0" x1="220.2" y1="620.5" x2="221.1" y2="605.5"/>
			<line class="st0" x1="217.1" y1="620.6" x2="217.9" y2="605.3"/>
			<line class="st0" x1="213.9" y1="620.7" x2="214.7" y2="605"/>
			<line class="st0" x1="210.7" y1="620.8" x2="211.6" y2="604.7"/>
			<line class="st0" x1="207.6" y1="620.9" x2="208.4" y2="604.4"/>
			<line class="st0" x1="204.4" y1="621" x2="205.1" y2="604.1"/>
			<line class="st0" x1="112.6" y1="620.4" x2="113.5" y2="605.8"/>
			<line class="st0" x1="109.4" y1="620.5" x2="110.3" y2="605.5"/>
			<line class="st0" x1="106.2" y1="620.6" x2="107.1" y2="605.3"/>
			<line class="st0" x1="103" y1="620.7" x2="103.9" y2="605"/>
			<line class="st0" x1="99.9" y1="620.8" x2="100.7" y2="604.7"/>
			<line class="st0" x1="96.7" y1="620.9" x2="97.5" y2="604.4"/>
			<line class="st0" x1="93.5" y1="621" x2="94.3" y2="604.1"/>
		</g>
	</g>
	<g id="stave-3">
		<rect id="staff_2_" x="38.4" y="431" class="st0" width="716" height="111.8"/>
		<g id="events_1_">
			<line class="st0" x1="52" y1="488.1" x2="56" y2="446.1"/>
			<line class="st0" x1="55.2" y1="487.8" x2="59.2" y2="446.2"/>
			<line class="st0" x1="58.4" y1="487.5" x2="62.4" y2="446.3"/>
			<line class="st0" x1="61.6" y1="487.2" x2="65.6" y2="446.4"/>
			<line class="st0" x1="64.9" y1="486.9" x2="68.8" y2="446.5"/>
			<line class="st0" x1="68.1" y1="486.6" x2="72" y2="446.6"/>
			<line class="st0" x1="71.3" y1="486.4" x2="75.2" y2="446.7"/>
			<line class="st0" x1="74.5" y1="486.1" x2="78.3" y2="446.8"/>
			<line class="st0" x1="77.7" y1="485.8" x2="81.5" y2="447"/>
			<line class="st0" x1="80.9" y1="485.5" x2="84.7" y2="447.1"/>
			<line class="st0" x1="84.1" y1="485.2" x2="87.9" y2="447.2"/>
			<line class="st0" x1="87.3" y1="485" x2="91.1" y2="447.3"/>
			<line class="st0" x1="90.5" y1="484.7" x2="94.3" y2="447.4"/>
			<line class="st0" x1="114.4" y1="516.7" x2="116.2" y2="526.2"/>
			<line class="st0" x1="117.6" y1="516.4" x2="119.4" y2="526.3"/>
			<line class="st0" x1="120.8" y1="516.1" x2="122.5" y2="526.4"/>
			<line class="st0" x1="124" y1="515.8" x2="125.7" y2="526.6"/>
			<line class="st0" x1="127.2" y1="515.5" x2="128.9" y2="526.7"/>
			<line class="st0" x1="130.5" y1="515.3" x2="132.1" y2="526.8"/>
			<line class="st0" x1="133.7" y1="515" x2="135.3" y2="526.9"/>
			<line class="st0" x1="136.9" y1="514.7" x2="138.5" y2="527"/>
			<line class="st0" x1="140.1" y1="514.4" x2="141.7" y2="527.1"/>
			<line class="st0" x1="143.3" y1="514.1" x2="144.8" y2="527.2"/>
			<line class="st0" x1="146.5" y1="513.8" x2="148" y2="527.4"/>
			<line class="st0" x1="149.7" y1="513.6" x2="151.2" y2="527.5"/>
			<line class="st0" x1="152.9" y1="513.3" x2="154.4" y2="527.6"/>
			<line class="st0" x1="156.1" y1="513" x2="157.6" y2="527.7"/>
			<line class="st0" x1="159.3" y1="512.7" x2="160.8" y2="527.8"/>
			<line class="st0" x1="162.5" y1="512.4" x2="164" y2="527.9"/>
			<line class="st0" x1="165.7" y1="512.2" x2="167.2" y2="528"/>
			<path class="st0" d="M169,511.9"/>
			<path class="st0" d="M270.7,479.2"/>
			<line class="st0" x1="271.3" y1="495.2" x2="273.9" y2="479.3"/>
			<line class="st0" x1="274.5" y1="494.9" x2="277.1" y2="479.4"/>
			<line class="st0" x1="277.7" y1="494.6" x2="280.3" y2="479.5"/>
			<line class="st0" x1="280.9" y1="494.4" x2="283.5" y2="479.6"/>
			<line class="st0" x1="284.1" y1="494.1" x2="286.6" y2="479.7"/>
			<line class="st0" x1="287.3" y1="493.8" x2="289.8" y2="479.9"/>
			<line class="st0" x1="290.5" y1="493.5" x2="293" y2="480"/>
			<line class="st0" x1="293.8" y1="493.2" x2="296.2" y2="480.1"/>
			<line class="st0" x1="297" y1="492.9" x2="299.4" y2="480.2"/>
			<line class="st0" x1="300.2" y1="492.7" x2="302.6" y2="480.3"/>
			<line class="st0" x1="303.4" y1="492.4" x2="305.8" y2="480.4"/>
			<line class="st0" x1="306.6" y1="492.1" x2="308.9" y2="480.5"/>
			<line class="st0" x1="309.8" y1="491.8" x2="312.1" y2="480.7"/>
			<line class="st0" x1="313" y1="491.5" x2="315.3" y2="480.8"/>
			<line class="st0" x1="316.2" y1="491.2" x2="318.5" y2="480.9"/>
			<line class="st0" x1="319.4" y1="491" x2="321.7" y2="481"/>
			<line class="st0" x1="322.6" y1="490.7" x2="324.9" y2="481.1"/>
			<line class="st0" x1="325.8" y1="490.4" x2="328.1" y2="481.2"/>
			<line class="st0" x1="299.8" y1="527.5" x2="250.7" y2="508.3"/>
			<line class="st0" x1="251.5" y1="520" x2="253.8" y2="508.4"/>
			<line class="st0" x1="254.7" y1="519.7" x2="257" y2="508.6"/>
			<line class="st0" x1="257.9" y1="519.4" x2="260.2" y2="508.7"/>
			<line class="st0" x1="261.1" y1="519.1" x2="263.4" y2="508.8"/>
			<line class="st0" x1="264.3" y1="518.9" x2="266.6" y2="508.9"/>
			<line class="st0" x1="267.5" y1="518.6" x2="269.8" y2="509"/>
			<line class="st0" x1="270.7" y1="518.3" x2="328.1" y2="481.2"/>
			<line class="st0" x1="329" y1="490.1" x2="331.2" y2="481.3"/>
			<line class="st0" x1="332.2" y1="489.8" x2="334.4" y2="481.5"/>
			<line class="st0" x1="335.5" y1="489.6" x2="337.6" y2="481.6"/>
			<line class="st0" x1="338.7" y1="489.3" x2="340.8" y2="481.7"/>
			<line class="st0" x1="341.9" y1="489" x2="344" y2="481.8"/>
			<line class="st0" x1="345.1" y1="488.7" x2="347.2" y2="481.9"/>
			<line class="st0" x1="348.3" y1="488.4" x2="350.4" y2="482"/>
			<line class="st0" x1="351.5" y1="488.1" x2="353.6" y2="482.1"/>
			<line class="st0" x1="354.7" y1="487.9" x2="356.7" y2="482.2"/>
			<line class="st0" x1="357.9" y1="487.6" x2="359.9" y2="482.4"/>
			<line class="st0" x1="361.1" y1="487.3" x2="363.1" y2="482.5"/>
			<line class="st0" x1="364.3" y1="487" x2="366.3" y2="482.6"/>
			<line class="st0" x1="367.5" y1="486.7" x2="369.5" y2="482.7"/>
			<line class="st0" x1="370.7" y1="486.5" x2="372.7" y2="482.8"/>
			<line class="st0" x1="373.9" y1="486.2" x2="375.9" y2="482.9"/>
			<line class="st0" x1="377.2" y1="485.9" x2="379" y2="483"/>
			<line class="st0" x1="380.4" y1="485.6" x2="382.2" y2="483.2"/>
			<line class="st0" x1="383.6" y1="485.3" x2="385.4" y2="483.3"/>
			<line class="st0" x1="386.8" y1="485" x2="388.6" y2="483.4"/>
			<line class="st0" x1="390" y1="484.8" x2="391.8" y2="483.5"/>
			<line class="st0" x1="393.2" y1="484.5" x2="395" y2="483.6"/>
			<line class="st0" x1="396.4" y1="484.2" x2="398.2" y2="483.7"/>
			<line class="st0" x1="399.6" y1="483.9" x2="401.3" y2="483.8"/>
			<line class="st0" x1="402.8" y1="483.6" x2="404.5" y2="483.9"/>
			<line class="st0" x1="406" y1="483.4" x2="407.7" y2="484.1"/>
			<line class="st0" x1="409.2" y1="483.1" x2="410.9" y2="484.2"/>
			<line class="st0" x1="412.4" y1="482.8" x2="414.1" y2="484.3"/>
			<line class="st0" x1="415.7" y1="482.5" x2="417.3" y2="484.4"/>
			<line class="st0" x1="418.9" y1="482.2" x2="420.5" y2="484.5"/>
			<line class="st0" x1="422.1" y1="481.9" x2="423.7" y2="484.6"/>
			<line class="st0" x1="425.3" y1="481.7" x2="426.8" y2="484.7"/>
			<line class="st0" x1="428.5" y1="481.4" x2="430" y2="484.9"/>
			<line class="st0" x1="431.7" y1="481.1" x2="433.2" y2="485"/>
			<line class="st0" x1="434.9" y1="480.8" x2="436.4" y2="485.1"/>
			<line class="st0" x1="438.1" y1="480.5" x2="439.6" y2="485.2"/>
			<line class="st0" x1="441.3" y1="480.3" x2="442.8" y2="485.3"/>
			<line class="st0" x1="444.5" y1="480" x2="446" y2="485.4"/>
			<line class="st0" x1="447.7" y1="479.7" x2="449.1" y2="485.5"/>
			<line class="st0" x1="450.9" y1="479.4" x2="452.3" y2="485.7"/>
			<line class="st0" x1="454.1" y1="479.1" x2="455.5" y2="485.8"/>
			<line class="st0" x1="457.4" y1="478.8" x2="458.7" y2="485.9"/>
			<line class="st0" x1="460.6" y1="478.6" x2="461.9" y2="486"/>
			<line class="st0" x1="463.8" y1="478.3" x2="465.1" y2="486.1"/>
			<line class="st0" x1="467" y1="478" x2="468.3" y2="486.2"/>
			<line class="st0" x1="470.2" y1="477.7" x2="471.4" y2="486.3"/>
			<line class="st0" x1="473.4" y1="477.4" x2="474.6" y2="486.4"/>
			<line class="st0" x1="476.6" y1="477.2" x2="477.8" y2="486.6"/>
			<line class="st0" x1="479.8" y1="476.9" x2="481" y2="486.7"/>
			<line class="st0" x1="483" y1="476.6" x2="484.2" y2="486.8"/>
			<line class="st0" x1="486.2" y1="476.3" x2="487.4" y2="486.9"/>
			<line class="st0" x1="489.4" y1="476" x2="490.6" y2="487"/>
			<line class="st0" x1="492.6" y1="475.7" x2="493.8" y2="487.1"/>
			<line class="st0" x1="495.9" y1="475.5" x2="496.9" y2="487.2"/>
			<line class="st0" x1="499.1" y1="475.2" x2="500.1" y2="487.4"/>
			<path class="st0" d="M508.8,503.7"/>
			<line class="st0" x1="509.4" y1="519.7" x2="512" y2="503.8"/>
			<line class="st0" x1="512.6" y1="519.4" x2="515.2" y2="503.9"/>
			<line class="st0" x1="515.8" y1="519.1" x2="518.4" y2="504"/>
			<line class="st0" x1="519" y1="518.9" x2="521.6" y2="504.1"/>
			<line class="st0" x1="522.2" y1="518.6" x2="524.7" y2="504.2"/>
			<line class="st0" x1="525.4" y1="518.3" x2="527.9" y2="504.4"/>
			<line class="st0" x1="528.6" y1="518" x2="531.1" y2="504.5"/>
			<line class="st0" x1="531.9" y1="517.7" x2="534.3" y2="504.6"/>
			<line class="st0" x1="535.1" y1="517.4" x2="537.5" y2="504.7"/>
			<line class="st0" x1="538.3" y1="517.2" x2="540.7" y2="504.8"/>
			<line class="st0" x1="541.5" y1="516.9" x2="543.9" y2="504.9"/>
			<line class="st0" x1="544.7" y1="516.6" x2="547" y2="505"/>
			<line class="st0" x1="547.9" y1="516.3" x2="550.2" y2="505.2"/>
			<line class="st0" x1="551.1" y1="516" x2="553.4" y2="505.3"/>
			<line class="st0" x1="554.3" y1="515.7" x2="556.6" y2="505.4"/>
			<line class="st0" x1="557.5" y1="515.5" x2="559.8" y2="505.5"/>
			<line class="st0" x1="560.7" y1="515.2" x2="563" y2="505.6"/>
			<line class="st0" x1="563.9" y1="514.9" x2="566.2" y2="505.7"/>
			<line class="st0" x1="508.8" y1="542.8" x2="566.2" y2="505.7"/>
			<line class="st0" x1="567.1" y1="514.6" x2="569.3" y2="505.8"/>
			<line class="st0" x1="570.3" y1="514.3" x2="572.5" y2="506"/>
			<line class="st0" x1="573.6" y1="514.1" x2="575.7" y2="506.1"/>
			<line class="st0" x1="576.8" y1="513.8" x2="578.9" y2="506.2"/>
			<line class="st0" x1="580" y1="513.5" x2="582.1" y2="506.3"/>
			<line class="st0" x1="583.2" y1="513.2" x2="585.3" y2="506.4"/>
			<line class="st0" x1="586.4" y1="512.9" x2="588.5" y2="506.5"/>
			<line class="st0" x1="589.6" y1="512.6" x2="591.7" y2="506.6"/>
			<line class="st0" x1="592.8" y1="512.4" x2="594.8" y2="506.7"/>
			<line class="st0" x1="596" y1="512.1" x2="598" y2="506.9"/>
			<line class="st0" x1="599.2" y1="511.8" x2="601.2" y2="507"/>
			<line class="st0" x1="602.4" y1="511.5" x2="604.4" y2="507.1"/>
			<line class="st0" x1="605.6" y1="511.2" x2="607.6" y2="507.2"/>
			<line class="st0" x1="608.8" y1="511" x2="610.8" y2="507.3"/>
			<line class="st0" x1="612" y1="510.7" x2="614" y2="507.4"/>
			<line class="st0" x1="615.3" y1="510.4" x2="617.1" y2="507.5"/>
			<line class="st0" x1="618.5" y1="510.1" x2="620.3" y2="507.7"/>
			<line class="st0" x1="621.7" y1="509.8" x2="623.5" y2="507.8"/>
			<line class="st0" x1="624.9" y1="509.5" x2="626.7" y2="507.9"/>
			<line class="st0" x1="628.1" y1="509.3" x2="629.9" y2="508"/>
			<line class="st0" x1="631.3" y1="509" x2="633.1" y2="508.1"/>
			<line class="st0" x1="634.5" y1="508.7" x2="636.3" y2="508.2"/>
			<line class="st0" x1="637.7" y1="508.4" x2="639.4" y2="508.3"/>
			<line class="st0" x1="640.9" y1="508.1" x2="642.6" y2="508.4"/>
			<line class="st0" x1="644.1" y1="507.9" x2="645.8" y2="508.6"/>
			<line class="st0" x1="647.3" y1="507.6" x2="649" y2="508.7"/>
			<line class="st0" x1="650.5" y1="507.3" x2="652.2" y2="508.8"/>
			<line class="st0" x1="653.8" y1="507" x2="655.4" y2="508.9"/>
			<line class="st0" x1="657" y1="506.7" x2="658.6" y2="509"/>
			<line class="st0" x1="660.2" y1="506.4" x2="661.8" y2="509.1"/>
			<line class="st0" x1="663.4" y1="506.2" x2="664.9" y2="509.2"/>
			<line class="st0" x1="666.6" y1="505.9" x2="668.1" y2="509.4"/>
			<line class="st0" x1="669.8" y1="505.6" x2="671.3" y2="509.5"/>
			<line class="st0" x1="673" y1="505.3" x2="674.5" y2="509.6"/>
			<line class="st0" x1="676.2" y1="505" x2="677.7" y2="509.7"/>
			<line class="st0" x1="679.4" y1="504.8" x2="680.9" y2="509.8"/>
			<line class="st0" x1="682.6" y1="504.5" x2="684.1" y2="509.9"/>
			<line class="st0" x1="685.8" y1="504.2" x2="687.2" y2="510"/>
			<line class="st0" x1="689" y1="503.9" x2="690.4" y2="510.2"/>
			<line class="st0" x1="692.2" y1="503.6" x2="693.6" y2="510.3"/>
			<line class="st0" x1="695.5" y1="503.3" x2="696.8" y2="510.4"/>
			<line class="st0" x1="698.7" y1="503.1" x2="700" y2="510.5"/>
			<line class="st0" x1="701.9" y1="502.8" x2="703.2" y2="510.6"/>
			<line class="st0" x1="705.1" y1="502.5" x2="706.4" y2="510.7"/>
			<line class="st0" x1="708.3" y1="502.2" x2="709.5" y2="510.8"/>
			<line class="st0" x1="711.5" y1="501.9" x2="712.7" y2="510.9"/>
			<line class="st0" x1="714.7" y1="501.7" x2="715.9" y2="511.1"/>
			<line class="st0" x1="717.9" y1="501.4" x2="719.1" y2="511.2"/>
			<line class="st0" x1="721.1" y1="501.1" x2="722.3" y2="511.3"/>
			<line class="st0" x1="724.3" y1="500.8" x2="725.5" y2="511.4"/>
			<line class="st0" x1="727.5" y1="500.5" x2="728.7" y2="511.5"/>
			<line class="st0" x1="730.7" y1="500.2" x2="731.9" y2="511.6"/>
			<line class="st0" x1="734" y1="500" x2="735" y2="511.7"/>
			<line class="st0" x1="737.2" y1="499.7" x2="738.2" y2="511.9"/>
			<line class="st0" x1="566.7" y1="446.6" x2="567.6" y2="461.2"/>
			<line class="st0" x1="569.9" y1="446.3" x2="570.8" y2="461.3"/>
			<line class="st0" x1="573.1" y1="446.1" x2="574" y2="461.4"/>
			<line class="st0" x1="576.3" y1="445.8" x2="577.2" y2="461.5"/>
			<line class="st0" x1="579.5" y1="445.5" x2="580.3" y2="461.6"/>
			<line class="st0" x1="582.7" y1="445.2" x2="583.5" y2="461.7"/>
			<line class="st0" x1="585.9" y1="444.9" x2="586.7" y2="461.8"/>
			<line class="st0" x1="677.6" y1="446.6" x2="678.5" y2="461.2"/>
			<line class="st0" x1="680.8" y1="446.3" x2="681.7" y2="461.3"/>
			<line class="st0" x1="684" y1="446.1" x2="684.9" y2="461.4"/>
			<line class="st0" x1="687.2" y1="445.8" x2="688.1" y2="461.5"/>
			<line class="st0" x1="690.4" y1="445.5" x2="691.2" y2="461.6"/>
			<line class="st0" x1="693.6" y1="445.2" x2="694.4" y2="461.7"/>
			<line class="st0" x1="696.8" y1="444.9" x2="697.6" y2="461.8"/>
		</g>
	</g>
	<g id="stave-2">
		<rect id="staff" x="38.4" y="249.5" class="st0" width="716" height="111.8"/>
		<g id="events">
			<line class="st0" x1="52.1" y1="304.8" x2="56.1" y2="262.8"/>
			<line class="st0" x1="55.3" y1="304.5" x2="59.3" y2="262.9"/>
			<line class="st0" x1="58.5" y1="304.2" x2="62.5" y2="263"/>
			<line class="st0" x1="61.7" y1="303.9" x2="65.7" y2="263.1"/>
			<line class="st0" x1="65" y1="303.6" x2="68.9" y2="263.2"/>
			<line class="st0" x1="68.2" y1="303.3" x2="72.1" y2="263.3"/>
			<line class="st0" x1="71.4" y1="303.1" x2="75.3" y2="263.4"/>
			<line class="st0" x1="74.6" y1="302.8" x2="78.4" y2="263.5"/>
			<line class="st0" x1="77.8" y1="302.5" x2="81.6" y2="263.7"/>
			<line class="st0" x1="81" y1="302.2" x2="84.8" y2="263.8"/>
			<line class="st0" x1="84.2" y1="301.9" x2="88" y2="263.9"/>
			<line class="st0" x1="87.4" y1="301.7" x2="91.2" y2="264"/>
			<line class="st0" x1="90.6" y1="301.4" x2="94.4" y2="264.1"/>
			<line class="st0" x1="159.1" y1="321.8" x2="162.5" y2="292"/>
			<line class="st0" x1="162.3" y1="321.5" x2="165.7" y2="292.1"/>
			<line class="st0" x1="165.5" y1="321.2" x2="168.8" y2="292.2"/>
			<line class="st0" x1="168.7" y1="320.9" x2="172" y2="292.4"/>
			<line class="st0" x1="171.9" y1="320.6" x2="175.2" y2="292.5"/>
			<line class="st0" x1="175.2" y1="320.4" x2="178.4" y2="292.6"/>
			<line class="st0" x1="178.4" y1="320.1" x2="181.6" y2="292.7"/>
			<line class="st0" x1="181.6" y1="319.8" x2="184.8" y2="292.8"/>
			<line class="st0" x1="184.8" y1="319.5" x2="188" y2="292.9"/>
			<line class="st0" x1="188" y1="319.2" x2="191.1" y2="293"/>
			<line class="st0" x1="191.2" y1="318.9" x2="194.3" y2="293.2"/>
			<line class="st0" x1="194.4" y1="318.7" x2="197.5" y2="293.3"/>
			<line class="st0" x1="197.6" y1="318.4" x2="200.7" y2="293.4"/>
			<line class="st0" x1="200.8" y1="318.1" x2="203.9" y2="293.5"/>
			<line class="st0" x1="204" y1="317.8" x2="207.1" y2="293.6"/>
			<line class="st0" x1="207.2" y1="317.5" x2="210.3" y2="293.7"/>
			<line class="st0" x1="210.4" y1="317.3" x2="213.5" y2="293.8"/>
			<path class="st0" d="M213.7,317"/>
			<path class="st0" d="M270.8,295.9"/>
			<line class="st0" x1="271.4" y1="311.9" x2="274" y2="296"/>
			<line class="st0" x1="274.6" y1="311.6" x2="277.2" y2="296.1"/>
			<line class="st0" x1="277.8" y1="311.3" x2="280.4" y2="296.2"/>
			<line class="st0" x1="281" y1="311.1" x2="283.6" y2="296.3"/>
			<line class="st0" x1="284.2" y1="310.8" x2="286.7" y2="296.4"/>
			<line class="st0" x1="287.4" y1="310.5" x2="289.9" y2="296.6"/>
			<line class="st0" x1="290.6" y1="310.2" x2="293.1" y2="296.7"/>
			<line class="st0" x1="293.9" y1="309.9" x2="296.3" y2="296.8"/>
			<line class="st0" x1="297.1" y1="309.6" x2="299.5" y2="296.9"/>
			<line class="st0" x1="300.3" y1="309.4" x2="302.7" y2="297"/>
			<line class="st0" x1="303.5" y1="309.1" x2="305.9" y2="297.1"/>
			<line class="st0" x1="306.7" y1="308.8" x2="309" y2="297.2"/>
			<line class="st0" x1="309.9" y1="308.5" x2="312.2" y2="297.4"/>
			<line class="st0" x1="313.1" y1="308.2" x2="315.4" y2="297.5"/>
			<line class="st0" x1="316.3" y1="307.9" x2="318.6" y2="297.6"/>
			<line class="st0" x1="319.5" y1="307.7" x2="321.8" y2="297.7"/>
			<line class="st0" x1="322.7" y1="307.4" x2="325" y2="297.8"/>
			<line class="st0" x1="325.9" y1="307.1" x2="328.2" y2="297.9"/>
			<line class="st0" x1="329.1" y1="306.8" x2="331.3" y2="298"/>
			<line class="st0" x1="332.3" y1="306.5" x2="334.5" y2="298.2"/>
			<line class="st0" x1="335.6" y1="306.3" x2="337.7" y2="298.3"/>
			<line class="st0" x1="338.8" y1="306" x2="340.9" y2="298.4"/>
			<line class="st0" x1="342" y1="305.7" x2="344.1" y2="298.5"/>
			<line class="st0" x1="345.2" y1="305.4" x2="347.3" y2="298.6"/>
			<line class="st0" x1="348.4" y1="305.1" x2="350.5" y2="298.7"/>
			<line class="st0" x1="351.6" y1="304.8" x2="353.7" y2="298.8"/>
			<line class="st0" x1="354.8" y1="304.6" x2="356.8" y2="298.9"/>
			<line class="st0" x1="358" y1="304.3" x2="360" y2="299.1"/>
			<line class="st0" x1="361.2" y1="304" x2="363.2" y2="299.2"/>
			<line class="st0" x1="364.4" y1="303.7" x2="366.4" y2="299.3"/>
			<line class="st0" x1="367.6" y1="303.4" x2="369.6" y2="299.4"/>
			<line class="st0" x1="370.8" y1="303.2" x2="372.8" y2="299.5"/>
			<line class="st0" x1="374" y1="302.9" x2="376" y2="299.6"/>
			<line class="st0" x1="377.3" y1="302.6" x2="379.1" y2="299.7"/>
			<line class="st0" x1="380.5" y1="302.3" x2="382.3" y2="299.9"/>
			<line class="st0" x1="383.7" y1="302" x2="385.5" y2="300"/>
			<line class="st0" x1="386.9" y1="301.7" x2="388.7" y2="300.1"/>
			<line class="st0" x1="390.1" y1="301.5" x2="391.9" y2="300.2"/>
			<line class="st0" x1="393.3" y1="301.2" x2="395.1" y2="300.3"/>
			<line class="st0" x1="396.5" y1="300.9" x2="398.3" y2="300.4"/>
			<line class="st0" x1="399.7" y1="300.6" x2="401.4" y2="300.5"/>
			<line class="st0" x1="402.9" y1="300.3" x2="404.6" y2="300.6"/>
			<line class="st0" x1="406.1" y1="300.1" x2="407.8" y2="300.8"/>
			<line class="st0" x1="409.3" y1="299.8" x2="411" y2="300.9"/>
			<line class="st0" x1="412.5" y1="299.5" x2="414.2" y2="301"/>
			<line class="st0" x1="415.8" y1="299.2" x2="417.4" y2="301.1"/>
			<line class="st0" x1="419" y1="298.9" x2="420.6" y2="301.2"/>
			<line class="st0" x1="422.2" y1="298.6" x2="423.8" y2="301.3"/>
			<line class="st0" x1="425.4" y1="298.4" x2="426.9" y2="301.4"/>
			<line class="st0" x1="428.6" y1="298.1" x2="430.1" y2="301.6"/>
			<line class="st0" x1="431.8" y1="297.8" x2="433.3" y2="301.7"/>
			<line class="st0" x1="435" y1="297.5" x2="436.5" y2="301.8"/>
			<line class="st0" x1="438.2" y1="297.2" x2="439.7" y2="301.9"/>
			<line class="st0" x1="441.4" y1="297" x2="442.9" y2="302"/>
			<line class="st0" x1="444.6" y1="296.7" x2="446.1" y2="302.1"/>
			<line class="st0" x1="447.8" y1="296.4" x2="449.2" y2="302.2"/>
			<line class="st0" x1="451" y1="296.1" x2="452.4" y2="302.4"/>
			<line class="st0" x1="454.2" y1="295.8" x2="455.6" y2="302.5"/>
			<line class="st0" x1="457.5" y1="295.5" x2="458.8" y2="302.6"/>
			<line class="st0" x1="460.7" y1="295.3" x2="462" y2="302.7"/>
			<line class="st0" x1="463.9" y1="295" x2="465.2" y2="302.8"/>
			<line class="st0" x1="467.1" y1="294.7" x2="468.4" y2="302.9"/>
			<line class="st0" x1="470.3" y1="294.4" x2="471.5" y2="303"/>
			<line class="st0" x1="473.5" y1="294.1" x2="474.7" y2="303.1"/>
			<line class="st0" x1="476.7" y1="293.9" x2="477.9" y2="303.3"/>
			<line class="st0" x1="479.9" y1="293.6" x2="481.1" y2="303.4"/>
			<line class="st0" x1="483.1" y1="293.3" x2="484.3" y2="303.5"/>
			<line class="st0" x1="486.3" y1="293" x2="487.5" y2="303.6"/>
			<line class="st0" x1="489.5" y1="292.7" x2="490.7" y2="303.7"/>
			<line class="st0" x1="492.7" y1="292.4" x2="493.9" y2="303.8"/>
			<line class="st0" x1="496" y1="292.2" x2="497" y2="303.9"/>
			<line class="st0" x1="499.2" y1="291.9" x2="500.2" y2="304.1"/>
			<line class="st0" x1="566.8" y1="263.3" x2="567.7" y2="277.9"/>
			<line class="st0" x1="570" y1="263" x2="570.9" y2="278"/>
			<line class="st0" x1="573.2" y1="262.8" x2="574.1" y2="278.1"/>
			<line class="st0" x1="576.4" y1="262.5" x2="577.3" y2="278.2"/>
			<line class="st0" x1="579.6" y1="262.2" x2="580.4" y2="278.3"/>
			<line class="st0" x1="582.8" y1="261.9" x2="583.6" y2="278.4"/>
			<line class="st0" x1="586" y1="261.6" x2="586.8" y2="278.5"/>
		</g>
	</g>
	<g id="stave-1">
		<rect id="staff_1_" x="38.4" y="67.8" class="st0" width="716" height="111.8"/>
		<g id="events_2_">
			<line class="st0" x1="48.8" y1="124.9" x2="52.8" y2="82.9"/>
			<line class="st0" x1="52" y1="124.6" x2="56" y2="83"/>
			<line class="st0" x1="55.2" y1="124.3" x2="59.2" y2="83.1"/>
			<line class="st0" x1="58.4" y1="124" x2="62.4" y2="83.2"/>
			<line class="st0" x1="61.7" y1="123.7" x2="65.6" y2="83.3"/>
			<line class="st0" x1="64.9" y1="123.4" x2="68.8" y2="83.4"/>
			<line class="st0" x1="68.1" y1="123.2" x2="72" y2="83.5"/>
			<line class="st0" x1="71.3" y1="122.9" x2="75.1" y2="83.6"/>
			<line class="st0" x1="74.5" y1="122.6" x2="78.3" y2="83.8"/>
			<line class="st0" x1="77.7" y1="122.3" x2="81.5" y2="83.9"/>
			<line class="st0" x1="80.9" y1="122" x2="84.7" y2="84"/>
			<line class="st0" x1="84.1" y1="121.8" x2="87.9" y2="84.1"/>
			<line class="st0" x1="87.3" y1="121.5" x2="91.1" y2="84.2"/>
			<line class="st0" x1="111.2" y1="153.5" x2="113" y2="163"/>
			<line class="st0" x1="114.4" y1="153.2" x2="116.2" y2="163.1"/>
			<line class="st0" x1="117.6" y1="152.9" x2="119.3" y2="163.2"/>
			<line class="st0" x1="120.8" y1="152.6" x2="122.5" y2="163.4"/>
			<line class="st0" x1="124" y1="152.3" x2="125.7" y2="163.5"/>
			<line class="st0" x1="127.3" y1="152.1" x2="128.9" y2="163.6"/>
			<path class="st0" d="M165.8,148.7"/>
			<path class="st0" d="M267.5,116"/>
			<line class="st0" x1="268.1" y1="132" x2="270.7" y2="116.1"/>
			<line class="st0" x1="271.3" y1="131.7" x2="273.9" y2="116.2"/>
			<line class="st0" x1="274.5" y1="131.4" x2="277.1" y2="116.3"/>
			<line class="st0" x1="277.7" y1="131.2" x2="280.3" y2="116.4"/>
			<line class="st0" x1="280.9" y1="130.9" x2="283.4" y2="116.5"/>
			<line class="st0" x1="284.1" y1="130.6" x2="286.6" y2="116.7"/>
			<line class="st0" x1="287.3" y1="130.3" x2="289.8" y2="116.8"/>
			<line class="st0" x1="290.6" y1="130" x2="293" y2="116.9"/>
			<line class="st0" x1="293.8" y1="129.7" x2="296.2" y2="117"/>
			<line class="st0" x1="297" y1="129.5" x2="299.4" y2="117.1"/>
			<line class="st0" x1="300.2" y1="129.2" x2="302.6" y2="117.2"/>
			<line class="st0" x1="303.4" y1="128.9" x2="305.7" y2="117.3"/>
			<line class="st0" x1="306.6" y1="128.6" x2="308.9" y2="117.5"/>
			<line class="st0" x1="200.4" y1="88.9" x2="202.7" y2="77.3"/>
			<line class="st0" x1="203.6" y1="88.6" x2="205.9" y2="77.5"/>
			<line class="st0" x1="206.8" y1="88.3" x2="209.1" y2="77.6"/>
			<line class="st0" x1="210" y1="88" x2="212.3" y2="77.7"/>
			<line class="st0" x1="213.2" y1="87.8" x2="215.5" y2="77.8"/>
			<line class="st0" x1="231.2" y1="88.9" x2="233.5" y2="77.3"/>
			<line class="st0" x1="234.4" y1="88.6" x2="236.7" y2="77.5"/>
			<line class="st0" x1="237.6" y1="88.3" x2="239.9" y2="77.6"/>
			<line class="st0" x1="240.8" y1="88" x2="243.1" y2="77.7"/>
			<line class="st0" x1="244" y1="87.8" x2="246.3" y2="77.8"/>
			<line class="st0" x1="263.8" y1="88.8" x2="266" y2="77.2"/>
			<line class="st0" x1="266.9" y1="88.5" x2="269.2" y2="77.4"/>
			<line class="st0" x1="270.1" y1="88.2" x2="272.4" y2="77.5"/>
			<line class="st0" x1="273.3" y1="87.9" x2="275.6" y2="77.6"/>
			<line class="st0" x1="276.5" y1="87.7" x2="278.8" y2="77.7"/>
			<line class="st0" x1="264.3" y1="155.4" x2="266.6" y2="145.8"/>
			<line class="st0" x1="663.4" y1="142.8" x2="664.9" y2="146.2"/>
			<line class="st0" x1="666.6" y1="142.4" x2="668.1" y2="146.4"/>
			<line class="st0" x1="669.8" y1="142.1" x2="671.3" y2="146.4"/>
			<line class="st0" x1="673" y1="141.9" x2="674.5" y2="146.5"/>
			<line class="st0" x1="676.2" y1="141.6" x2="677.7" y2="146.6"/>
			<line class="st0" x1="679.4" y1="141.4" x2="680.9" y2="146.8"/>
			<line class="st0" x1="682.6" y1="141" x2="684" y2="146.9"/>
			<line class="st0" x1="685.8" y1="140.8" x2="687.2" y2="147"/>
			<line class="st0" x1="689" y1="140.4" x2="690.4" y2="147.1"/>
			<line class="st0" x1="692.3" y1="140.1" x2="693.6" y2="147.2"/>
			<line class="st0" x1="695.5" y1="139.9" x2="696.8" y2="147.4"/>
			<line class="st0" x1="698.7" y1="139.6" x2="700" y2="147.4"/>
			<line class="st0" x1="701.9" y1="139.4" x2="703.2" y2="147.5"/>
			<line class="st0" x1="705.1" y1="139" x2="706.3" y2="147.6"/>
			<line class="st0" x1="708.3" y1="138.8" x2="709.5" y2="147.8"/>
			<line class="st0" x1="711.5" y1="138.5" x2="712.7" y2="147.9"/>
			<line class="st0" x1="714.7" y1="138.2" x2="715.9" y2="148"/>
			<line class="st0" x1="717.9" y1="137.9" x2="719.1" y2="148.1"/>
			<line class="st0" x1="721.1" y1="137.6" x2="722.3" y2="148.2"/>
			<line class="st0" x1="724.3" y1="137.4" x2="725.5" y2="148.4"/>
			<line class="st0" x1="727.5" y1="137" x2="728.7" y2="148.4"/>
			<line class="st0" x1="730.8" y1="136.9" x2="731.8" y2="148.5"/>
			<line class="st0" x1="734" y1="136.5" x2="735" y2="148.8"/>
			<line class="st0" x1="674.4" y1="83.4" x2="675.3" y2="98"/>
			<line class="st0" x1="677.6" y1="83.1" x2="678.5" y2="98.1"/>
			<line class="st0" x1="680.8" y1="82.9" x2="681.7" y2="98.2"/>
			<line class="st0" x1="684" y1="82.6" x2="684.9" y2="98.3"/>
			<line class="st0" x1="687.2" y1="82.3" x2="688" y2="98.4"/>
			<line class="st0" x1="690.4" y1="82" x2="691.2" y2="98.5"/>
			<line class="st0" x1="693.6" y1="81.7" x2="694.4" y2="98.6"/>
		</g>
	</g>
</g>
</svg>
