<?xml version="1.0" encoding="utf-8"?>
<!-- Generator: Adobe Illustrator 19.1.0, SVG Export Plug-In . SVG Version: 6.00 Build 0)  -->
<svg version="1.1" id="Layer_1" xmlns="http://www.w3.org/2000/svg" xmlns:xlink="http://www.w3.org/1999/xlink" x="0px" y="0px"
	 width="792px" height="911.1px" viewBox="-24 -158.8 792 911.1" enable-background="new -24 -158.8 792 911.1"
	 xml:space="preserve">
<g id="page-1">
	<g id="stave-4">
		<rect id="staff_3_" x="14.4" y="482.5" fill="none" stroke="#000000" stroke-miterlimit="10" width="716" height="111.8"/>
		<g id="events_3_">
			<line fill="none" stroke="#000000" stroke-miterlimit="10" x1="196.2" y1="554.7" x2="197.2" y2="540.1"/>
			<line fill="none" stroke="#000000" stroke-miterlimit="10" x1="193" y1="554.8" x2="193.9" y2="539.8"/>
			<line fill="none" stroke="#000000" stroke-miterlimit="10" x1="189.9" y1="554.9" x2="190.7" y2="539.6"/>
			<line fill="none" stroke="#000000" stroke-miterlimit="10" x1="186.7" y1="555" x2="187.5" y2="539.3"/>
			<line fill="none" stroke="#000000" stroke-miterlimit="10" x1="183.5" y1="555.1" x2="184.4" y2="539"/>
			<line fill="none" stroke="#000000" stroke-miterlimit="10" x1="180.4" y1="555.2" x2="181.2" y2="538.7"/>
			<line fill="none" stroke="#000000" stroke-miterlimit="10" x1="177.2" y1="555.3" x2="177.9" y2="538.4"/>
			<line fill="none" stroke="#000000" stroke-miterlimit="10" x1="85.4" y1="554.7" x2="86.3" y2="540.1"/>
			<line fill="none" stroke="#000000" stroke-miterlimit="10" x1="82.2" y1="554.8" x2="83.1" y2="539.8"/>
			<line fill="none" stroke="#000000" stroke-miterlimit="10" x1="79" y1="554.9" x2="79.9" y2="539.6"/>
			<line fill="none" stroke="#000000" stroke-miterlimit="10" x1="75.8" y1="555" x2="76.7" y2="539.3"/>
			<line fill="none" stroke="#000000" stroke-miterlimit="10" x1="72.7" y1="555.1" x2="73.5" y2="539"/>
			<line fill="none" stroke="#000000" stroke-miterlimit="10" x1="69.5" y1="555.2" x2="70.3" y2="538.7"/>
			<line fill="none" stroke="#000000" stroke-miterlimit="10" x1="66.3" y1="555.3" x2="67.1" y2="538.4"/>
		</g>
	</g>
	<g id="stave-3">
		<rect id="staff_2_" x="13.6" y="323.4" fill="none" stroke="#000000" stroke-miterlimit="10" width="716" height="111.8"/>
		<g id="events_1_">
			<line fill="none" stroke="#000000" stroke-miterlimit="10" x1="89.6" y1="409.1" x2="91.4" y2="418.6"/>
			<line fill="none" stroke="#000000" stroke-miterlimit="10" x1="92.8" y1="408.8" x2="94.6" y2="418.7"/>
			<line fill="none" stroke="#000000" stroke-miterlimit="10" x1="96" y1="408.5" x2="97.7" y2="418.8"/>
		</g>
	</g>
	<g id="stave-2">
		<rect id="staff" x="13.6" y="141.9" fill="none" stroke="#000000" stroke-miterlimit="10" width="716" height="111.8"/>
		<g id="events_5_">
			<line fill="none" stroke="#000000" stroke-width="0.7175" stroke-miterlimit="10" x1="33.4" y1="183" x2="37.3" y2="167.3"/>
			<line fill="none" stroke="#000000" stroke-width="0.7175" stroke-miterlimit="10" x1="36.6" y1="182.8" x2="40.5" y2="167.3"/>
			<line fill="none" stroke="#000000" stroke-width="0.7175" stroke-miterlimit="10" x1="39.8" y1="182.8" x2="43.7" y2="167.4"/>
			<line fill="none" stroke="#000000" stroke-width="0.7175" stroke-miterlimit="10" x1="43" y1="182.7" x2="46.8" y2="167.4"/>
			<line fill="none" stroke="#000000" stroke-width="0.7175" stroke-miterlimit="10" x1="169.2" y1="239.1" x2="173" y2="231.4"/>
			<line fill="none" stroke="#000000" stroke-width="0.7175" stroke-miterlimit="10" x1="208.5" y1="239.1" x2="212.3" y2="231.4"/>
			<line fill="none" stroke="#000000" stroke-width="0.7175" stroke-miterlimit="10" x1="227.5" y1="239.1" x2="231.3" y2="231.4"/>
			<line fill="none" stroke="#000000" stroke-width="0.7175" stroke-miterlimit="10" x1="235.6" y1="239.1" x2="239.4" y2="231.4"/>
			<line fill="none" stroke="#000000" stroke-width="0.7175" stroke-miterlimit="10" x1="323.9" y1="239.1" x2="327.7" y2="231.4"/>
			<line fill="none" stroke="#000000" stroke-width="0.7175" stroke-miterlimit="10" x1="46.2" y1="182.5" x2="50" y2="167.5"/>
			<line fill="none" stroke="#000000" stroke-width="0.7175" stroke-miterlimit="10" x1="49.4" y1="182.4" x2="53.2" y2="167.5"/>
			<line fill="none" stroke="#000000" stroke-width="0.7175" stroke-miterlimit="10" x1="52.6" y1="182.3" x2="56.4" y2="167.6"/>
			<line fill="none" stroke="#000000" stroke-width="0.7175" stroke-miterlimit="10" x1="55.8" y1="182.2" x2="59.6" y2="167.6"/>
		</g>
	</g>
	<g id="stave-1">
		<rect id="staff_1_" x="13.6" y="-39.8" fill="none" stroke="#000000" stroke-miterlimit="10" width="716" height="111.8"/>
		<g id="events_2_">
			<line fill="none" stroke="#000000" stroke-miterlimit="10" x1="41.8" y1="41.1" x2="66.3" y2="1.5"/>
			<line fill="none" stroke="#000000" stroke-miterlimit="10" x1="54" y1="41.1" x2="78.6" y2="1.5"/>
			<line fill="none" stroke="#000000" stroke-miterlimit="10" x1="59.6" y1="41.1" x2="84.1" y2="1.5"/>
			<line fill="none" stroke="#000000" stroke-miterlimit="10" x1="65.1" y1="41.1" x2="89.6" y2="1.5"/>
			<line fill="none" stroke="#000000" stroke-width="1.4749" stroke-miterlimit="10" x1="625.6" y1="41.1" x2="679" y2="1.5"/>
			<line fill="none" stroke="#000000" stroke-width="1.4749" stroke-miterlimit="10" x1="599.7" y1="39" x2="649.6" y2="0.4"/>
			<line fill="none" stroke="#000000" stroke-width="1.4749" stroke-miterlimit="10" x1="573.8" y1="36.9" x2="620.1" y2="-0.7"/>
			<line fill="none" stroke="#000000" stroke-width="1.4749" stroke-miterlimit="10" x1="548" y1="34.8" x2="590.7" y2="-1.8"/>
			<line fill="none" stroke="#000000" stroke-width="1.4749" stroke-miterlimit="10" x1="522.1" y1="32.7" x2="561.3" y2="-2.9"/>
			<line fill="none" stroke="#000000" stroke-width="1.4749" stroke-miterlimit="10" x1="496.2" y1="30.7" x2="531.8" y2="-3.9"/>
			<line fill="none" stroke="#000000" stroke-width="1.4749" stroke-miterlimit="10" x1="470.3" y1="28.6" x2="502.4" y2="-5"/>
			<line fill="none" stroke="#000000" stroke-width="1.4749" stroke-miterlimit="10" x1="444.5" y1="26.5" x2="473" y2="-6.1"/>
			<line fill="none" stroke="#000000" stroke-width="1.4749" stroke-miterlimit="10" x1="418.6" y1="24.4" x2="443.5" y2="-7.2"/>
			<line fill="none" stroke="#000000" stroke-width="1.4749" stroke-miterlimit="10" x1="392.7" y1="22.3" x2="414.1" y2="-8.3"/>
			<line fill="none" stroke="#000000" stroke-width="1.4749" stroke-miterlimit="10" x1="366.8" y1="20.2" x2="384.6" y2="-9.3"/>
			<line fill="none" stroke="#000000" stroke-width="1.4749" stroke-miterlimit="10" x1="341" y1="18.1" x2="355.2" y2="-10.4"/>
			<line fill="none" stroke="#000000" stroke-width="1.4749" stroke-miterlimit="10" x1="315.1" y1="16.1" x2="325.8" y2="-11.5"/>
			<line fill="none" stroke="#000000" stroke-width="1.4749" stroke-miterlimit="10" x1="289.2" y1="14" x2="296.3" y2="-12.6"/>
			<line fill="none" stroke="#000000" stroke-width="1.4749" stroke-miterlimit="10" x1="263.3" y1="11.9" x2="266.9" y2="-13.7"/>
			<line fill="none" stroke="#000000" stroke-width="1.4749" stroke-miterlimit="10" x1="237.5" y1="9.8" x2="237.5" y2="-14.7"/>
			<line fill="none" stroke="#000000" stroke-miterlimit="10" x1="102.5" y1="44.5" x2="104.1" y2="56"/>
		</g>
	</g>
</g>
</svg>
