<?xml version="1.0" encoding="utf-8"?>
<!-- Generator: Adobe Illustrator 19.1.0, SVG Export Plug-In . SVG Version: 6.00 Build 0)  -->
<svg version="1.1" id="Layer_1" xmlns="http://www.w3.org/2000/svg" xmlns:xlink="http://www.w3.org/1999/xlink" x="0px" y="0px"
	 width="792px" height="911.1px" viewBox="-24 -158.8 792 911.1" enable-background="new -24 -158.8 792 911.1"
	 xml:space="preserve">
<g id="page-1">
	<g id="stave-4">
		<rect id="staff_3_" x="14.4" y="482.5" fill="none" stroke="#000000" stroke-miterlimit="10" width="716" height="111.8"/>
		<g id="events_3_">
			<line fill="none" stroke="#000000" stroke-miterlimit="10" x1="710.2" y1="497.7" x2="714.2" y2="503"/>
			<line fill="none" stroke="#000000" stroke-miterlimit="10" x1="707" y1="497.7" x2="711" y2="503"/>
			<line fill="none" stroke="#000000" stroke-miterlimit="10" x1="703.8" y1="497.7" x2="707.8" y2="502.9"/>
			<line fill="none" stroke="#000000" stroke-miterlimit="10" x1="700.7" y1="497.7" x2="704.7" y2="502.9"/>
			<line fill="none" stroke="#000000" stroke-miterlimit="10" x1="697.4" y1="497.7" x2="701.3" y2="502.8"/>
			<line fill="none" stroke="#000000" stroke-miterlimit="10" x1="694.2" y1="497.7" x2="698.2" y2="502.8"/>
			<line fill="none" stroke="#000000" stroke-miterlimit="10" x1="691" y1="497.8" x2="695" y2="502.8"/>
			<line fill="none" stroke="#000000" stroke-miterlimit="10" x1="688" y1="497.8" x2="691.7" y2="502.7"/>
			<line fill="none" stroke="#000000" stroke-miterlimit="10" x1="684.7" y1="497.8" x2="688.5" y2="502.7"/>
			<line fill="none" stroke="#000000" stroke-miterlimit="10" x1="681.5" y1="497.8" x2="685.3" y2="502.7"/>
			<line fill="none" stroke="#000000" stroke-miterlimit="10" x1="678.3" y1="497.8" x2="682.2" y2="502.6"/>
			<line fill="none" stroke="#000000" stroke-miterlimit="10" x1="675.2" y1="497.8" x2="679" y2="502.6"/>
			<line fill="none" stroke="#000000" stroke-miterlimit="10" x1="672" y1="497.8" x2="675.7" y2="502.6"/>
			<line fill="none" stroke="#000000" stroke-miterlimit="10" x1="650" y1="577.8" x2="651.8" y2="568.3"/>
			<line fill="none" stroke="#000000" stroke-miterlimit="10" x1="646.8" y1="577.9" x2="648.6" y2="568"/>
			<line fill="none" stroke="#000000" stroke-miterlimit="10" x1="643.7" y1="578" x2="645.4" y2="567.7"/>
			<line fill="none" stroke="#000000" stroke-miterlimit="10" x1="640.5" y1="578.2" x2="642.2" y2="567.4"/>
			<line fill="none" stroke="#000000" stroke-miterlimit="10" x1="637.3" y1="578.3" x2="639" y2="567.1"/>
			<line fill="none" stroke="#000000" stroke-miterlimit="10" x1="634.2" y1="578.4" x2="635.7" y2="566.9"/>
			<line fill="none" stroke="#000000" stroke-miterlimit="10" x1="631" y1="578.5" x2="632.5" y2="566.6"/>
			<line fill="none" stroke="#000000" stroke-miterlimit="10" x1="627.7" y1="578.6" x2="629.3" y2="566.3"/>
			<line fill="none" stroke="#000000" stroke-miterlimit="10" x1="624.5" y1="578.7" x2="626.1" y2="566"/>
			<line fill="none" stroke="#000000" stroke-miterlimit="10" x1="621.4" y1="578.8" x2="623" y2="565.7"/>
			<line fill="none" stroke="#000000" stroke-miterlimit="10" x1="618.2" y1="579" x2="619.7" y2="565.4"/>
			<line fill="none" stroke="#000000" stroke-miterlimit="10" x1="615" y1="579.1" x2="616.5" y2="565.2"/>
			<line fill="none" stroke="#000000" stroke-miterlimit="10" x1="611.8" y1="579.2" x2="613.3" y2="564.9"/>
			<line fill="none" stroke="#000000" stroke-miterlimit="10" x1="608.7" y1="579.3" x2="610.1" y2="564.6"/>
			<line fill="none" stroke="#000000" stroke-miterlimit="10" x1="605.4" y1="579.4" x2="607" y2="564.3"/>
			<line fill="none" stroke="#000000" stroke-miterlimit="10" x1="602.2" y1="579.5" x2="603.7" y2="564"/>
			<line fill="none" stroke="#000000" stroke-miterlimit="10" x1="85.3" y1="561.4" x2="86.8" y2="556.4"/>
			<line fill="none" stroke="#000000" stroke-miterlimit="10" x1="82.1" y1="561.5" x2="83.6" y2="556.1"/>
			<line fill="none" stroke="#000000" stroke-miterlimit="10" x1="79" y1="561.6" x2="80.4" y2="555.8"/>
			<line fill="none" stroke="#000000" stroke-miterlimit="10" x1="75.8" y1="561.8" x2="77.2" y2="555.5"/>
			<line fill="none" stroke="#000000" stroke-miterlimit="10" x1="72.6" y1="561.9" x2="74" y2="555.2"/>
			<line fill="none" stroke="#000000" stroke-miterlimit="10" x1="69.4" y1="562" x2="70.7" y2="554.9"/>
			<line fill="none" stroke="#000000" stroke-miterlimit="10" x1="66.2" y1="562.1" x2="67.5" y2="554.7"/>
			<line fill="none" stroke="#000000" stroke-miterlimit="10" x1="63" y1="562.2" x2="64.3" y2="554.4"/>
			<line fill="none" stroke="#000000" stroke-miterlimit="10" x1="59.8" y1="562.3" x2="61.1" y2="554.1"/>
			<line fill="none" stroke="#000000" stroke-miterlimit="10" x1="56.7" y1="562.4" x2="57.9" y2="553.8"/>
			<line fill="none" stroke="#000000" stroke-miterlimit="10" x1="53.5" y1="562.5" x2="54.7" y2="553.5"/>
			<line fill="none" stroke="#000000" stroke-miterlimit="10" x1="50.3" y1="562.7" x2="51.5" y2="553.3"/>
			<line fill="none" stroke="#000000" stroke-miterlimit="10" x1="47.1" y1="562.8" x2="48.3" y2="553"/>
			<line fill="none" stroke="#000000" stroke-miterlimit="10" x1="43.9" y1="562.9" x2="45.1" y2="552.7"/>
			<line fill="none" stroke="#000000" stroke-miterlimit="10" x1="40.7" y1="563" x2="41.9" y2="552.4"/>
			<line fill="none" stroke="#000000" stroke-miterlimit="10" x1="37.5" y1="563.1" x2="38.7" y2="552.1"/>
			<line fill="none" stroke="#000000" stroke-miterlimit="10" x1="34.3" y1="563.2" x2="35.5" y2="551.8"/>
			<line fill="none" stroke="#000000" stroke-miterlimit="10" x1="31.2" y1="563.3" x2="32.2" y2="551.6"/>
			<line fill="none" stroke="#000000" stroke-miterlimit="10" x1="28" y1="563.5" x2="29" y2="551.3"/>
			<line fill="none" stroke="#000000" stroke-miterlimit="10" x1="198.6" y1="512.8" x2="199.6" y2="498.2"/>
			<line fill="none" stroke="#000000" stroke-miterlimit="10" x1="195.4" y1="512.9" x2="196.3" y2="497.9"/>
			<line fill="none" stroke="#000000" stroke-miterlimit="10" x1="192.3" y1="513" x2="193.1" y2="497.7"/>
			<line fill="none" stroke="#000000" stroke-miterlimit="10" x1="189.1" y1="513.1" x2="189.9" y2="497.4"/>
			<line fill="none" stroke="#000000" stroke-miterlimit="10" x1="185.9" y1="513.2" x2="186.8" y2="497.1"/>
			<line fill="none" stroke="#000000" stroke-miterlimit="10" x1="182.8" y1="513.3" x2="183.6" y2="496.8"/>
			<line fill="none" stroke="#000000" stroke-miterlimit="10" x1="179.6" y1="513.4" x2="180.3" y2="496.5"/>
			<line fill="none" stroke="#000000" stroke-miterlimit="10" x1="87.8" y1="512.8" x2="88.7" y2="498.2"/>
			<line fill="none" stroke="#000000" stroke-miterlimit="10" x1="84.6" y1="512.9" x2="85.5" y2="497.9"/>
			<line fill="none" stroke="#000000" stroke-miterlimit="10" x1="81.4" y1="513" x2="82.3" y2="497.7"/>
			<line fill="none" stroke="#000000" stroke-miterlimit="10" x1="78.2" y1="513.1" x2="79.1" y2="497.4"/>
			<line fill="none" stroke="#000000" stroke-miterlimit="10" x1="75.1" y1="513.2" x2="75.9" y2="497.1"/>
			<line fill="none" stroke="#000000" stroke-miterlimit="10" x1="71.9" y1="513.3" x2="72.7" y2="496.8"/>
			<line fill="none" stroke="#000000" stroke-miterlimit="10" x1="68.7" y1="513.4" x2="69.5" y2="496.5"/>
		</g>
	</g>
	<g id="stave-3">
		<rect id="staff_2_" x="13.6" y="323.4" fill="none" stroke="#000000" stroke-miterlimit="10" width="716" height="111.8"/>
		<g id="events_1_">
			<line fill="none" stroke="#000000" stroke-miterlimit="10" x1="27.2" y1="380.5" x2="31.2" y2="338.5"/>
			<line fill="none" stroke="#000000" stroke-miterlimit="10" x1="30.4" y1="380.2" x2="34.4" y2="338.6"/>
			<line fill="none" stroke="#000000" stroke-miterlimit="10" x1="33.6" y1="379.9" x2="37.6" y2="338.7"/>
			<line fill="none" stroke="#000000" stroke-miterlimit="10" x1="36.8" y1="379.6" x2="40.8" y2="338.8"/>
			<line fill="none" stroke="#000000" stroke-miterlimit="10" x1="40.1" y1="379.3" x2="44" y2="338.9"/>
			<line fill="none" stroke="#000000" stroke-miterlimit="10" x1="43.3" y1="379" x2="47.2" y2="339"/>
			<line fill="none" stroke="#000000" stroke-miterlimit="10" x1="46.5" y1="378.8" x2="50.4" y2="339.1"/>
			<line fill="none" stroke="#000000" stroke-miterlimit="10" x1="49.7" y1="378.5" x2="53.5" y2="339.2"/>
			<line fill="none" stroke="#000000" stroke-miterlimit="10" x1="52.9" y1="378.2" x2="56.7" y2="339.4"/>
			<line fill="none" stroke="#000000" stroke-miterlimit="10" x1="56.1" y1="377.9" x2="59.9" y2="339.5"/>
			<line fill="none" stroke="#000000" stroke-miterlimit="10" x1="59.3" y1="377.6" x2="63.1" y2="339.6"/>
			<line fill="none" stroke="#000000" stroke-miterlimit="10" x1="62.5" y1="377.4" x2="66.3" y2="339.7"/>
			<line fill="none" stroke="#000000" stroke-miterlimit="10" x1="65.7" y1="377.1" x2="69.5" y2="339.8"/>
			<line fill="none" stroke="#000000" stroke-miterlimit="10" x1="89.6" y1="409.1" x2="91.4" y2="418.6"/>
			<line fill="none" stroke="#000000" stroke-miterlimit="10" x1="92.8" y1="408.8" x2="94.6" y2="418.7"/>
			<line fill="none" stroke="#000000" stroke-miterlimit="10" x1="96" y1="408.5" x2="97.7" y2="418.8"/>
			<line fill="none" stroke="#000000" stroke-miterlimit="10" x1="648.2" y1="397.7" x2="649.7" y2="402"/>
			<line fill="none" stroke="#000000" stroke-miterlimit="10" x1="651.4" y1="397.4" x2="652.9" y2="402.1"/>
			<line fill="none" stroke="#000000" stroke-miterlimit="10" x1="654.6" y1="397.2" x2="656.1" y2="402.2"/>
			<line fill="none" stroke="#000000" stroke-miterlimit="10" x1="657.8" y1="396.9" x2="659.3" y2="402.3"/>
			<line fill="none" stroke="#000000" stroke-miterlimit="10" x1="661" y1="396.6" x2="662.4" y2="402.4"/>
			<line fill="none" stroke="#000000" stroke-miterlimit="10" x1="664.2" y1="396.3" x2="665.6" y2="402.6"/>
			<line fill="none" stroke="#000000" stroke-miterlimit="10" x1="667.4" y1="396" x2="668.8" y2="402.7"/>
			<line fill="none" stroke="#000000" stroke-miterlimit="10" x1="670.7" y1="395.7" x2="672" y2="402.8"/>
			<line fill="none" stroke="#000000" stroke-miterlimit="10" x1="673.9" y1="395.5" x2="675.2" y2="402.9"/>
			<line fill="none" stroke="#000000" stroke-miterlimit="10" x1="677.1" y1="395.2" x2="678.4" y2="403"/>
			<line fill="none" stroke="#000000" stroke-miterlimit="10" x1="680.3" y1="394.9" x2="681.6" y2="403.1"/>
			<line fill="none" stroke="#000000" stroke-miterlimit="10" x1="683.5" y1="394.6" x2="684.7" y2="403.2"/>
			<line fill="none" stroke="#000000" stroke-miterlimit="10" x1="686.7" y1="394.3" x2="687.9" y2="403.3"/>
			<line fill="none" stroke="#000000" stroke-miterlimit="10" x1="689.9" y1="394.1" x2="691.1" y2="403.5"/>
			<line fill="none" stroke="#000000" stroke-miterlimit="10" x1="693.1" y1="393.8" x2="694.3" y2="403.6"/>
			<line fill="none" stroke="#000000" stroke-miterlimit="10" x1="696.3" y1="393.5" x2="697.5" y2="403.7"/>
			<line fill="none" stroke="#000000" stroke-miterlimit="10" x1="699.5" y1="393.2" x2="700.7" y2="403.8"/>
			<line fill="none" stroke="#000000" stroke-miterlimit="10" x1="702.7" y1="392.9" x2="703.9" y2="403.9"/>
			<line fill="none" stroke="#000000" stroke-miterlimit="10" x1="705.9" y1="392.6" x2="707.1" y2="404"/>
			<line fill="none" stroke="#000000" stroke-miterlimit="10" x1="709.2" y1="392.4" x2="710.2" y2="404.1"/>
			<line fill="none" stroke="#000000" stroke-miterlimit="10" x1="712.4" y1="392.1" x2="713.4" y2="404.3"/>
			<line fill="none" stroke="#000000" stroke-miterlimit="10" x1="652.8" y1="339" x2="653.7" y2="353.6"/>
			<line fill="none" stroke="#000000" stroke-miterlimit="10" x1="656" y1="338.7" x2="656.9" y2="353.7"/>
			<line fill="none" stroke="#000000" stroke-miterlimit="10" x1="659.2" y1="338.5" x2="660.1" y2="353.8"/>
			<line fill="none" stroke="#000000" stroke-miterlimit="10" x1="662.4" y1="338.2" x2="663.3" y2="353.9"/>
			<line fill="none" stroke="#000000" stroke-miterlimit="10" x1="665.6" y1="337.9" x2="666.4" y2="354"/>
			<line fill="none" stroke="#000000" stroke-miterlimit="10" x1="668.8" y1="337.6" x2="669.6" y2="354.1"/>
			<line fill="none" stroke="#000000" stroke-miterlimit="10" x1="672" y1="337.3" x2="672.8" y2="354.2"/>
		</g>
	</g>
	<g id="stave-2">
		<rect id="staff" x="13.6" y="141.9" fill="none" stroke="#000000" stroke-miterlimit="10" width="716" height="111.8"/>
		<g id="events_5_">
			<line fill="none" stroke="#000000" stroke-miterlimit="10" x1="139.2" y1="241.2" x2="123.2" y2="219.9"/>
			<line fill="none" stroke="#000000" stroke-miterlimit="10" x1="142.4" y1="241" x2="126.4" y2="220"/>
			<line fill="none" stroke="#000000" stroke-miterlimit="10" x1="145.6" y1="240.7" x2="129.6" y2="220.1"/>
			<line fill="none" stroke="#000000" stroke-miterlimit="10" x1="148.8" y1="240.5" x2="132.8" y2="220.2"/>
			<line fill="none" stroke="#000000" stroke-miterlimit="10" x1="152.1" y1="240.3" x2="136.1" y2="220.2"/>
			<line fill="none" stroke="#000000" stroke-miterlimit="10" x1="155.3" y1="240" x2="139.2" y2="220.3"/>
			<line fill="none" stroke="#000000" stroke-miterlimit="10" x1="158.5" y1="239.9" x2="142.4" y2="220.4"/>
			<line fill="none" stroke="#000000" stroke-miterlimit="10" x1="235.3" y1="177.6" x2="219.2" y2="158.1"/>
			<line fill="none" stroke="#000000" stroke-miterlimit="10" x1="292.1" y1="201.2" x2="276.1" y2="181.6"/>
			<line fill="none" stroke="#000000" stroke-miterlimit="10" x1="366.9" y1="220.7" x2="350.9" y2="201.2"/>
			<line fill="none" stroke="#000000" stroke-miterlimit="10" x1="398.8" y1="229.6" x2="382.7" y2="210.1"/>
			<line fill="none" stroke="#000000" stroke-miterlimit="10" x1="427.8" y1="239.4" x2="411.7" y2="219.9"/>
			<line fill="none" stroke="#000000" stroke-miterlimit="10" x1="444.9" y1="240.3" x2="428.9" y2="220.8"/>
			<line fill="none" stroke="#000000" stroke-miterlimit="10" x1="461" y1="248.3" x2="444.9" y2="228.8"/>
			<line fill="none" stroke="#000000" stroke-miterlimit="10" x1="161.7" y1="239.7" x2="145.6" y2="220.5"/>
			<line fill="none" stroke="#000000" stroke-miterlimit="10" x1="164.9" y1="239.4" x2="148.8" y2="220.6"/>
			<line fill="none" stroke="#000000" stroke-miterlimit="10" x1="168.1" y1="239.2" x2="151.9" y2="220.7"/>
			<line fill="none" stroke="#000000" stroke-miterlimit="10" x1="171.3" y1="239" x2="155.1" y2="220.8"/>
			<line fill="none" stroke="#000000" stroke-miterlimit="10" x1="174.5" y1="238.8" x2="158.3" y2="220.8"/>
			<line fill="none" stroke="#000000" stroke-miterlimit="10" x1="33.4" y1="197.8" x2="37.3" y2="167.3"/>
			<line fill="none" stroke="#000000" stroke-miterlimit="10" x1="36.6" y1="197.5" x2="40.5" y2="167.4"/>
			<line fill="none" stroke="#000000" stroke-miterlimit="10" x1="39.8" y1="197.4" x2="43.7" y2="167.5"/>
			<line fill="none" stroke="#000000" stroke-miterlimit="10" x1="43" y1="197.2" x2="46.8" y2="167.6"/>
			<line fill="none" stroke="#000000" stroke-miterlimit="10" x1="46.2" y1="196.9" x2="50" y2="167.7"/>
			<line fill="none" stroke="#000000" stroke-miterlimit="10" x1="49.4" y1="196.7" x2="53.2" y2="167.8"/>
			<line fill="none" stroke="#000000" stroke-miterlimit="10" x1="52.6" y1="196.5" x2="56.4" y2="167.9"/>
			<line fill="none" stroke="#000000" stroke-miterlimit="10" x1="55.8" y1="196.3" x2="59.6" y2="167.9"/>
			<line fill="none" stroke="#000000" stroke-miterlimit="10" x1="81.4" y1="183.1" x2="85.3" y2="152.6"/>
			<line fill="none" stroke="#000000" stroke-miterlimit="10" x1="84.6" y1="182.8" x2="88.5" y2="152.7"/>
			<line fill="none" stroke="#000000" stroke-miterlimit="10" x1="87.8" y1="182.7" x2="91.7" y2="152.8"/>
			<line fill="none" stroke="#000000" stroke-miterlimit="10" x1="91" y1="182.5" x2="94.8" y2="152.9"/>
			<line fill="none" stroke="#000000" stroke-miterlimit="10" x1="94.2" y1="182.2" x2="98" y2="153"/>
			<line fill="none" stroke="#000000" stroke-miterlimit="10" x1="97.4" y1="182" x2="101.2" y2="153.1"/>
			<line fill="none" stroke="#000000" stroke-miterlimit="10" x1="100.6" y1="181.8" x2="104.4" y2="153.2"/>
			<line fill="none" stroke="#000000" stroke-miterlimit="10" x1="103.8" y1="181.6" x2="107.6" y2="153.2"/>
			<line fill="none" stroke="#000000" stroke-miterlimit="10" x1="177.7" y1="238.6" x2="161.6" y2="220.9"/>
		</g>
	</g>
	<g id="stave-1">
		<rect id="staff_1_" x="13.6" y="-39.8" fill="none" stroke="#000000" stroke-miterlimit="10" width="716" height="111.8"/>
		<g id="events_2_">
			<line fill="none" stroke="#000000" stroke-miterlimit="10" x1="24" y1="17.3" x2="28" y2="-24.7"/>
			<line fill="none" stroke="#000000" stroke-miterlimit="10" x1="27.2" y1="17" x2="31.2" y2="-24.6"/>
			<line fill="none" stroke="#000000" stroke-miterlimit="10" x1="30.4" y1="16.7" x2="34.4" y2="-24.5"/>
			<line fill="none" stroke="#000000" stroke-miterlimit="10" x1="33.6" y1="16.4" x2="37.6" y2="-24.4"/>
			<line fill="none" stroke="#000000" stroke-miterlimit="10" x1="36.9" y1="16.1" x2="40.8" y2="-24.3"/>
			<line fill="none" stroke="#000000" stroke-miterlimit="10" x1="40.1" y1="15.8" x2="44" y2="-24.2"/>
			<line fill="none" stroke="#000000" stroke-miterlimit="10" x1="43.3" y1="15.6" x2="47.2" y2="-24.1"/>
			<line fill="none" stroke="#000000" stroke-miterlimit="10" x1="46.5" y1="15.3" x2="50.3" y2="-24"/>
			<line fill="none" stroke="#000000" stroke-miterlimit="10" x1="49.7" y1="15" x2="53.5" y2="-23.8"/>
			<line fill="none" stroke="#000000" stroke-miterlimit="10" x1="52.9" y1="14.7" x2="56.7" y2="-23.7"/>
			<line fill="none" stroke="#000000" stroke-miterlimit="10" x1="56.1" y1="14.4" x2="59.9" y2="-23.6"/>
			<line fill="none" stroke="#000000" stroke-miterlimit="10" x1="59.3" y1="14.2" x2="63.1" y2="-23.5"/>
			<line fill="none" stroke="#000000" stroke-miterlimit="10" x1="62.5" y1="13.9" x2="66.3" y2="-23.4"/>
			<line fill="none" stroke="#000000" stroke-miterlimit="10" x1="86.4" y1="45.9" x2="88.2" y2="55.4"/>
			<line fill="none" stroke="#000000" stroke-miterlimit="10" x1="89.6" y1="45.6" x2="91.4" y2="55.5"/>
			<line fill="none" stroke="#000000" stroke-miterlimit="10" x1="92.8" y1="45.3" x2="94.5" y2="55.6"/>
			<line fill="none" stroke="#000000" stroke-miterlimit="10" x1="96" y1="45" x2="97.7" y2="55.8"/>
			<line fill="none" stroke="#000000" stroke-miterlimit="10" x1="99.2" y1="44.7" x2="100.9" y2="55.9"/>
			<line fill="none" stroke="#000000" stroke-miterlimit="10" x1="102.5" y1="44.5" x2="104.1" y2="56"/>
			<path fill="none" stroke="#000000" stroke-miterlimit="10" d="M141,41.1"/>
			<line fill="none" stroke="#000000" stroke-miterlimit="10" x1="188.4" y1="-19.8" x2="190.7" y2="-29.8"/>
			<line fill="none" stroke="#000000" stroke-miterlimit="10" x1="219.2" y1="-19.8" x2="221.5" y2="-29.8"/>
			<line fill="none" stroke="#000000" stroke-miterlimit="10" x1="248.5" y1="-19.7" x2="250.8" y2="-30"/>
			<line fill="none" stroke="#000000" stroke-miterlimit="10" x1="251.7" y1="-19.9" x2="254" y2="-29.9"/>
			<line fill="none" stroke="#000000" stroke-miterlimit="10" x1="436.9" y1="50.7" x2="439.2" y2="40.7"/>
			<line fill="none" stroke="#000000" stroke-miterlimit="10" x1="467.7" y1="50.7" x2="470" y2="40.7"/>
			<line fill="none" stroke="#000000" stroke-miterlimit="10" x1="497" y1="50.8" x2="499.3" y2="40.5"/>
			<line fill="none" stroke="#000000" stroke-miterlimit="10" x1="500.2" y1="50.6" x2="502.5" y2="40.6"/>
			<line fill="none" stroke="#000000" stroke-miterlimit="10" x1="538.1" y1="19.5" x2="540.4" y2="9.5"/>
			<line fill="none" stroke="#000000" stroke-miterlimit="10" x1="568.9" y1="19.5" x2="571.2" y2="9.5"/>
			<line fill="none" stroke="#000000" stroke-miterlimit="10" x1="598.2" y1="19.6" x2="600.5" y2="9.3"/>
			<line fill="none" stroke="#000000" stroke-miterlimit="10" x1="601.4" y1="19.4" x2="603.7" y2="9.4"/>
			<line fill="none" stroke="#000000" stroke-miterlimit="10" x1="706" y1="29.3" x2="707" y2="40.9"/>
			<line fill="none" stroke="#000000" stroke-miterlimit="10" x1="709.2" y1="28.9" x2="710.2" y2="41.2"/>
		</g>
	</g>
</g>
</svg>
