<?xml version="1.0" encoding="utf-8"?>
<!-- Generator: Adobe Illustrator 19.1.0, SVG Export Plug-In . SVG Version: 6.00 Build 0)  -->
<svg version="1.1" id="Layer_1" xmlns="http://www.w3.org/2000/svg" xmlns:xlink="http://www.w3.org/1999/xlink" x="0px" y="0px"
	 width="792px" height="911.1px" viewBox="-24 -158.8 792 911.1" enable-background="new -24 -158.8 792 911.1"
	 xml:space="preserve">
<g id="page-1">
	<g id="stave-4">
		<rect id="staff_3_" x="2" y="489.8" fill="none" stroke="#000000" stroke-miterlimit="10" width="716" height="111.8"/>
		<g id="events_3_">
			<line fill="none" stroke="#000000" stroke-miterlimit="10" x1="697.8" y1="505" x2="701.8" y2="510.3"/>
			<line fill="none" stroke="#000000" stroke-miterlimit="10" x1="694.6" y1="505" x2="698.6" y2="510.3"/>
			<line fill="none" stroke="#000000" stroke-miterlimit="10" x1="691.4" y1="505" x2="695.4" y2="510.2"/>
			<line fill="none" stroke="#000000" stroke-miterlimit="10" x1="688.3" y1="505" x2="692.3" y2="510.2"/>
			<line fill="none" stroke="#000000" stroke-miterlimit="10" x1="685" y1="505" x2="688.9" y2="510.1"/>
			<line fill="none" stroke="#000000" stroke-miterlimit="10" x1="681.8" y1="505" x2="685.8" y2="510.1"/>
			<line fill="none" stroke="#000000" stroke-miterlimit="10" x1="678.6" y1="505.1" x2="682.6" y2="510.1"/>
			<line fill="none" stroke="#000000" stroke-miterlimit="10" x1="675.6" y1="505.1" x2="679.3" y2="510"/>
			<line fill="none" stroke="#000000" stroke-miterlimit="10" x1="672.3" y1="505.1" x2="676.1" y2="510"/>
			<line fill="none" stroke="#000000" stroke-miterlimit="10" x1="669.1" y1="505.1" x2="672.9" y2="510"/>
			<line fill="none" stroke="#000000" stroke-miterlimit="10" x1="665.9" y1="505.1" x2="669.8" y2="509.9"/>
			<line fill="none" stroke="#000000" stroke-miterlimit="10" x1="662.8" y1="505.1" x2="666.6" y2="509.9"/>
			<line fill="none" stroke="#000000" stroke-miterlimit="10" x1="659.6" y1="505.1" x2="663.3" y2="509.9"/>
			<line fill="none" stroke="#000000" stroke-miterlimit="10" x1="637.6" y1="585.1" x2="639.4" y2="575.6"/>
			<line fill="none" stroke="#000000" stroke-miterlimit="10" x1="634.4" y1="585.2" x2="636.2" y2="575.3"/>
			<line fill="none" stroke="#000000" stroke-miterlimit="10" x1="631.3" y1="585.3" x2="633" y2="575"/>
			<line fill="none" stroke="#000000" stroke-miterlimit="10" x1="628.1" y1="585.5" x2="629.8" y2="574.7"/>
			<line fill="none" stroke="#000000" stroke-miterlimit="10" x1="624.9" y1="585.6" x2="626.6" y2="574.4"/>
			<line fill="none" stroke="#000000" stroke-miterlimit="10" x1="621.8" y1="585.7" x2="623.3" y2="574.2"/>
			<line fill="none" stroke="#000000" stroke-miterlimit="10" x1="618.6" y1="585.8" x2="620.1" y2="573.9"/>
			<line fill="none" stroke="#000000" stroke-miterlimit="10" x1="615.3" y1="585.9" x2="616.9" y2="573.6"/>
			<line fill="none" stroke="#000000" stroke-miterlimit="10" x1="612.1" y1="586" x2="613.7" y2="573.3"/>
			<line fill="none" stroke="#000000" stroke-miterlimit="10" x1="609" y1="586.1" x2="610.6" y2="573"/>
			<line fill="none" stroke="#000000" stroke-miterlimit="10" x1="605.8" y1="586.3" x2="607.3" y2="572.7"/>
			<line fill="none" stroke="#000000" stroke-miterlimit="10" x1="602.6" y1="586.4" x2="604.1" y2="572.5"/>
			<line fill="none" stroke="#000000" stroke-miterlimit="10" x1="599.4" y1="586.5" x2="600.9" y2="572.2"/>
			<line fill="none" stroke="#000000" stroke-miterlimit="10" x1="596.3" y1="586.6" x2="597.7" y2="571.9"/>
			<line fill="none" stroke="#000000" stroke-miterlimit="10" x1="593" y1="586.7" x2="594.6" y2="571.6"/>
			<line fill="none" stroke="#000000" stroke-miterlimit="10" x1="589.8" y1="586.8" x2="591.3" y2="571.3"/>
			<line fill="none" stroke="#000000" stroke-miterlimit="10" x1="72.9" y1="568.7" x2="74.4" y2="563.7"/>
			<line fill="none" stroke="#000000" stroke-miterlimit="10" x1="69.7" y1="568.8" x2="71.2" y2="563.4"/>
			<line fill="none" stroke="#000000" stroke-miterlimit="10" x1="66.6" y1="568.9" x2="68" y2="563.1"/>
			<line fill="none" stroke="#000000" stroke-miterlimit="10" x1="63.4" y1="569.1" x2="64.8" y2="562.8"/>
			<line fill="none" stroke="#000000" stroke-miterlimit="10" x1="60.2" y1="569.2" x2="61.6" y2="562.5"/>
			<line fill="none" stroke="#000000" stroke-miterlimit="10" x1="57" y1="569.3" x2="58.3" y2="562.2"/>
			<line fill="none" stroke="#000000" stroke-miterlimit="10" x1="53.8" y1="569.4" x2="55.1" y2="562"/>
			<line fill="none" stroke="#000000" stroke-miterlimit="10" x1="50.6" y1="569.5" x2="51.9" y2="561.7"/>
			<line fill="none" stroke="#000000" stroke-miterlimit="10" x1="47.4" y1="569.6" x2="48.7" y2="561.4"/>
			<line fill="none" stroke="#000000" stroke-miterlimit="10" x1="44.3" y1="569.7" x2="45.5" y2="561.1"/>
			<line fill="none" stroke="#000000" stroke-miterlimit="10" x1="41.1" y1="569.8" x2="42.3" y2="560.8"/>
			<line fill="none" stroke="#000000" stroke-miterlimit="10" x1="37.9" y1="570" x2="39.1" y2="560.6"/>
			<line fill="none" stroke="#000000" stroke-miterlimit="10" x1="34.7" y1="570.1" x2="35.9" y2="560.3"/>
			<line fill="none" stroke="#000000" stroke-miterlimit="10" x1="31.5" y1="570.2" x2="32.7" y2="560"/>
			<line fill="none" stroke="#000000" stroke-miterlimit="10" x1="28.3" y1="570.3" x2="29.5" y2="559.7"/>
			<line fill="none" stroke="#000000" stroke-miterlimit="10" x1="25.1" y1="570.4" x2="26.3" y2="559.4"/>
			<line fill="none" stroke="#000000" stroke-miterlimit="10" x1="21.9" y1="570.5" x2="23.1" y2="559.1"/>
			<line fill="none" stroke="#000000" stroke-miterlimit="10" x1="18.8" y1="570.6" x2="19.8" y2="558.9"/>
			<line fill="none" stroke="#000000" stroke-miterlimit="10" x1="15.6" y1="570.8" x2="16.6" y2="558.6"/>
			<line fill="none" stroke="#000000" stroke-miterlimit="10" x1="186.2" y1="520.1" x2="187.2" y2="505.5"/>
			<line fill="none" stroke="#000000" stroke-miterlimit="10" x1="183" y1="520.2" x2="183.9" y2="505.2"/>
			<line fill="none" stroke="#000000" stroke-miterlimit="10" x1="179.9" y1="520.3" x2="180.7" y2="505"/>
			<line fill="none" stroke="#000000" stroke-miterlimit="10" x1="176.7" y1="520.4" x2="177.5" y2="504.7"/>
			<line fill="none" stroke="#000000" stroke-miterlimit="10" x1="173.5" y1="520.5" x2="174.4" y2="504.4"/>
			<line fill="none" stroke="#000000" stroke-miterlimit="10" x1="170.4" y1="520.6" x2="171.2" y2="504.1"/>
			<line fill="none" stroke="#000000" stroke-miterlimit="10" x1="167.2" y1="520.7" x2="167.9" y2="503.8"/>
			<line fill="none" stroke="#000000" stroke-miterlimit="10" x1="75.4" y1="520.1" x2="76.3" y2="505.5"/>
			<line fill="none" stroke="#000000" stroke-miterlimit="10" x1="72.2" y1="520.2" x2="73.1" y2="505.2"/>
			<line fill="none" stroke="#000000" stroke-miterlimit="10" x1="69" y1="520.3" x2="69.9" y2="505"/>
			<line fill="none" stroke="#000000" stroke-miterlimit="10" x1="65.8" y1="520.4" x2="66.7" y2="504.7"/>
			<line fill="none" stroke="#000000" stroke-miterlimit="10" x1="62.7" y1="520.5" x2="63.5" y2="504.4"/>
			<line fill="none" stroke="#000000" stroke-miterlimit="10" x1="59.5" y1="520.6" x2="60.3" y2="504.1"/>
			<line fill="none" stroke="#000000" stroke-miterlimit="10" x1="56.3" y1="520.7" x2="57.1" y2="503.8"/>
		</g>
	</g>
	<g id="stave-3">
		<rect id="staff_2_" x="1.2" y="330.7" fill="none" stroke="#000000" stroke-miterlimit="10" width="716" height="111.8"/>
		<g id="events_1_">
			<line fill="none" stroke="#000000" stroke-miterlimit="10" x1="14.8" y1="387.8" x2="18.8" y2="345.8"/>
			<line fill="none" stroke="#000000" stroke-miterlimit="10" x1="18" y1="387.5" x2="22" y2="345.9"/>
			<line fill="none" stroke="#000000" stroke-miterlimit="10" x1="21.2" y1="387.2" x2="25.2" y2="346"/>
			<line fill="none" stroke="#000000" stroke-miterlimit="10" x1="24.4" y1="386.9" x2="28.4" y2="346.1"/>
			<line fill="none" stroke="#000000" stroke-miterlimit="10" x1="27.7" y1="386.6" x2="31.6" y2="346.2"/>
			<line fill="none" stroke="#000000" stroke-miterlimit="10" x1="30.9" y1="386.3" x2="34.8" y2="346.3"/>
			<line fill="none" stroke="#000000" stroke-miterlimit="10" x1="34.1" y1="386.1" x2="38" y2="346.4"/>
			<line fill="none" stroke="#000000" stroke-miterlimit="10" x1="37.3" y1="385.8" x2="41.1" y2="346.5"/>
			<line fill="none" stroke="#000000" stroke-miterlimit="10" x1="40.5" y1="385.5" x2="44.3" y2="346.7"/>
			<line fill="none" stroke="#000000" stroke-miterlimit="10" x1="43.7" y1="385.2" x2="47.5" y2="346.8"/>
			<line fill="none" stroke="#000000" stroke-miterlimit="10" x1="46.9" y1="384.9" x2="50.7" y2="346.9"/>
			<line fill="none" stroke="#000000" stroke-miterlimit="10" x1="50.1" y1="384.7" x2="53.9" y2="347"/>
			<line fill="none" stroke="#000000" stroke-miterlimit="10" x1="53.3" y1="384.4" x2="57.1" y2="347.1"/>
			<line fill="none" stroke="#000000" stroke-miterlimit="10" x1="77.2" y1="416.4" x2="79" y2="425.9"/>
			<line fill="none" stroke="#000000" stroke-miterlimit="10" x1="80.4" y1="416.1" x2="82.2" y2="426"/>
			<line fill="none" stroke="#000000" stroke-miterlimit="10" x1="83.6" y1="415.8" x2="85.3" y2="426.1"/>
			<line fill="none" stroke="#000000" stroke-miterlimit="10" x1="635.8" y1="405" x2="637.3" y2="409.3"/>
			<line fill="none" stroke="#000000" stroke-miterlimit="10" x1="639" y1="404.7" x2="640.5" y2="409.4"/>
			<line fill="none" stroke="#000000" stroke-miterlimit="10" x1="642.2" y1="404.5" x2="643.7" y2="409.5"/>
			<line fill="none" stroke="#000000" stroke-miterlimit="10" x1="645.4" y1="404.2" x2="646.9" y2="409.6"/>
			<line fill="none" stroke="#000000" stroke-miterlimit="10" x1="648.6" y1="403.9" x2="650" y2="409.7"/>
			<line fill="none" stroke="#000000" stroke-miterlimit="10" x1="651.8" y1="403.6" x2="653.2" y2="409.9"/>
			<line fill="none" stroke="#000000" stroke-miterlimit="10" x1="655" y1="403.3" x2="656.4" y2="410"/>
			<line fill="none" stroke="#000000" stroke-miterlimit="10" x1="658.3" y1="403" x2="659.6" y2="410.1"/>
			<line fill="none" stroke="#000000" stroke-miterlimit="10" x1="661.5" y1="402.8" x2="662.8" y2="410.2"/>
			<line fill="none" stroke="#000000" stroke-miterlimit="10" x1="664.7" y1="402.5" x2="666" y2="410.3"/>
			<line fill="none" stroke="#000000" stroke-miterlimit="10" x1="667.9" y1="402.2" x2="669.2" y2="410.4"/>
			<line fill="none" stroke="#000000" stroke-miterlimit="10" x1="671.1" y1="401.9" x2="672.3" y2="410.5"/>
			<line fill="none" stroke="#000000" stroke-miterlimit="10" x1="674.3" y1="401.6" x2="675.5" y2="410.6"/>
			<line fill="none" stroke="#000000" stroke-miterlimit="10" x1="677.5" y1="401.4" x2="678.7" y2="410.8"/>
			<line fill="none" stroke="#000000" stroke-miterlimit="10" x1="680.7" y1="401.1" x2="681.9" y2="410.9"/>
			<line fill="none" stroke="#000000" stroke-miterlimit="10" x1="683.9" y1="400.8" x2="685.1" y2="411"/>
			<line fill="none" stroke="#000000" stroke-miterlimit="10" x1="687.1" y1="400.5" x2="688.3" y2="411.1"/>
			<line fill="none" stroke="#000000" stroke-miterlimit="10" x1="690.3" y1="400.2" x2="691.5" y2="411.2"/>
			<line fill="none" stroke="#000000" stroke-miterlimit="10" x1="693.5" y1="399.9" x2="694.7" y2="411.3"/>
			<line fill="none" stroke="#000000" stroke-miterlimit="10" x1="696.8" y1="399.7" x2="697.8" y2="411.4"/>
			<line fill="none" stroke="#000000" stroke-miterlimit="10" x1="700" y1="399.4" x2="701" y2="411.6"/>
			<line fill="none" stroke="#000000" stroke-miterlimit="10" x1="640.4" y1="346.3" x2="641.3" y2="360.9"/>
			<line fill="none" stroke="#000000" stroke-miterlimit="10" x1="643.6" y1="346" x2="644.5" y2="361"/>
			<line fill="none" stroke="#000000" stroke-miterlimit="10" x1="646.8" y1="345.8" x2="647.7" y2="361.1"/>
			<line fill="none" stroke="#000000" stroke-miterlimit="10" x1="650" y1="345.5" x2="650.9" y2="361.2"/>
			<line fill="none" stroke="#000000" stroke-miterlimit="10" x1="653.2" y1="345.2" x2="654" y2="361.3"/>
			<line fill="none" stroke="#000000" stroke-miterlimit="10" x1="656.4" y1="344.9" x2="657.2" y2="361.4"/>
			<line fill="none" stroke="#000000" stroke-miterlimit="10" x1="659.6" y1="344.6" x2="660.4" y2="361.5"/>
		</g>
	</g>
	<g id="stave-2">
		<rect id="staff" x="1.2" y="149.2" fill="none" stroke="#000000" stroke-miterlimit="10" width="716" height="111.8"/>
		<g id="events">
			<line fill="none" stroke="#000000" stroke-miterlimit="10" x1="607.8" y1="223.9" x2="611.8" y2="181.9"/>
			<line fill="none" stroke="#000000" stroke-miterlimit="10" x1="611" y1="223.6" x2="615" y2="182"/>
			<line fill="none" stroke="#000000" stroke-miterlimit="10" x1="614.2" y1="223.3" x2="618.2" y2="182.1"/>
			<line fill="none" stroke="#000000" stroke-miterlimit="10" x1="617.4" y1="223" x2="621.4" y2="182.2"/>
			<line fill="none" stroke="#000000" stroke-miterlimit="10" x1="620.7" y1="222.7" x2="624.6" y2="182.3"/>
			<line fill="none" stroke="#000000" stroke-miterlimit="10" x1="623.9" y1="222.4" x2="627.8" y2="182.4"/>
			<line fill="none" stroke="#000000" stroke-miterlimit="10" x1="627.1" y1="222.2" x2="631" y2="182.5"/>
			<line fill="none" stroke="#000000" stroke-miterlimit="10" x1="630.3" y1="221.9" x2="634.1" y2="182.6"/>
			<line fill="none" stroke="#000000" stroke-miterlimit="10" x1="633.6" y1="221.6" x2="637.3" y2="182.8"/>
			<line fill="none" stroke="#000000" stroke-miterlimit="10" x1="636.7" y1="221.3" x2="640.6" y2="182.9"/>
			<line fill="none" stroke="#000000" stroke-miterlimit="10" x1="639.9" y1="221" x2="643.7" y2="183"/>
			<line fill="none" stroke="#000000" stroke-miterlimit="10" x1="643.1" y1="220.8" x2="646.9" y2="183.1"/>
			<line fill="none" stroke="#000000" stroke-miterlimit="10" x1="646.3" y1="220.5" x2="650.1" y2="183.2"/>
		</g>
		<g id="events_4_">
			<line fill="none" stroke="#000000" stroke-miterlimit="10" x1="92.1" y1="189.7" x2="96.1" y2="167.2"/>
			<line fill="none" stroke="#000000" stroke-miterlimit="10" x1="95.3" y1="189.5" x2="99.3" y2="167.2"/>
			<line fill="none" stroke="#000000" stroke-miterlimit="10" x1="98.5" y1="189.4" x2="102.5" y2="167.3"/>
			<line fill="none" stroke="#000000" stroke-miterlimit="10" x1="101.7" y1="189.2" x2="105.7" y2="167.3"/>
			<line fill="none" stroke="#000000" stroke-miterlimit="10" x1="105" y1="189.1" x2="108.9" y2="167.4"/>
			<line fill="none" stroke="#000000" stroke-miterlimit="10" x1="108.2" y1="188.9" x2="112.1" y2="167.4"/>
			<line fill="none" stroke="#000000" stroke-miterlimit="10" x1="111.4" y1="188.8" x2="115.3" y2="167.5"/>
			<line fill="none" stroke="#000000" stroke-miterlimit="10" x1="114.6" y1="188.6" x2="118.4" y2="167.5"/>
			<line fill="none" stroke="#000000" stroke-miterlimit="10" x1="117.8" y1="188.5" x2="121.6" y2="167.7"/>
			<line fill="none" stroke="#000000" stroke-miterlimit="10" x1="121" y1="188.3" x2="124.8" y2="167.7"/>
			<line fill="none" stroke="#000000" stroke-miterlimit="10" x1="124.2" y1="188.1" x2="128" y2="167.8"/>
			<line fill="none" stroke="#000000" stroke-miterlimit="10" x1="127.4" y1="188" x2="131.2" y2="167.8"/>
			<line fill="none" stroke="#000000" stroke-miterlimit="10" x1="130.6" y1="187.9" x2="134.4" y2="167.9"/>
		</g>
		<g id="events_5_">
			<line fill="none" stroke="#000000" stroke-miterlimit="10" x1="126.8" y1="248.5" x2="130.8" y2="216.8"/>
			<line fill="none" stroke="#000000" stroke-miterlimit="10" x1="130" y1="248.3" x2="134" y2="216.9"/>
			<line fill="none" stroke="#000000" stroke-miterlimit="10" x1="133.2" y1="248" x2="137.2" y2="217"/>
			<line fill="none" stroke="#000000" stroke-miterlimit="10" x1="136.4" y1="247.8" x2="140.4" y2="217.1"/>
			<line fill="none" stroke="#000000" stroke-miterlimit="10" x1="139.7" y1="247.6" x2="143.6" y2="217.1"/>
			<line fill="none" stroke="#000000" stroke-miterlimit="10" x1="142.9" y1="247.3" x2="146.8" y2="217.2"/>
			<line fill="none" stroke="#000000" stroke-miterlimit="10" x1="146.1" y1="247.2" x2="150" y2="217.3"/>
			<line fill="none" stroke="#000000" stroke-miterlimit="10" x1="149.3" y1="247" x2="153.1" y2="217.4"/>
			<line fill="none" stroke="#000000" stroke-miterlimit="10" x1="152.5" y1="246.7" x2="156.3" y2="217.5"/>
			<line fill="none" stroke="#000000" stroke-miterlimit="10" x1="155.7" y1="246.5" x2="159.5" y2="217.6"/>
			<line fill="none" stroke="#000000" stroke-miterlimit="10" x1="158.9" y1="246.3" x2="162.7" y2="217.7"/>
			<line fill="none" stroke="#000000" stroke-miterlimit="10" x1="162.1" y1="246.1" x2="165.9" y2="217.7"/>
			<line fill="none" stroke="#000000" stroke-miterlimit="10" x1="165.3" y1="245.9" x2="169.1" y2="217.8"/>
		</g>
		<g id="events_6_">
			<line fill="none" stroke="#000000" stroke-miterlimit="10" x1="157" y1="189.1" x2="161" y2="166.6"/>
			<line fill="none" stroke="#000000" stroke-miterlimit="10" x1="160.2" y1="188.9" x2="164.2" y2="166.6"/>
			<line fill="none" stroke="#000000" stroke-miterlimit="10" x1="163.4" y1="188.8" x2="167.4" y2="166.7"/>
			<line fill="none" stroke="#000000" stroke-miterlimit="10" x1="166.6" y1="188.6" x2="170.6" y2="166.7"/>
			<line fill="none" stroke="#000000" stroke-miterlimit="10" x1="169.9" y1="188.5" x2="173.8" y2="166.8"/>
			<line fill="none" stroke="#000000" stroke-miterlimit="10" x1="173.1" y1="188.3" x2="177" y2="166.8"/>
			<line fill="none" stroke="#000000" stroke-miterlimit="10" x1="176.3" y1="188.2" x2="180.2" y2="166.9"/>
			<line fill="none" stroke="#000000" stroke-miterlimit="10" x1="179.5" y1="188" x2="183.3" y2="167"/>
			<line fill="none" stroke="#000000" stroke-miterlimit="10" x1="182.7" y1="187.9" x2="186.5" y2="167.1"/>
			<line fill="none" stroke="#000000" stroke-miterlimit="10" x1="185.9" y1="187.7" x2="189.7" y2="167.1"/>
			<line fill="none" stroke="#000000" stroke-miterlimit="10" x1="189.1" y1="187.6" x2="192.9" y2="167.2"/>
			<line fill="none" stroke="#000000" stroke-miterlimit="10" x1="192.3" y1="187.4" x2="196.1" y2="167.2"/>
			<line fill="none" stroke="#000000" stroke-miterlimit="10" x1="195.5" y1="187.3" x2="199.3" y2="167.3"/>
		</g>
		<g id="events_7_">
			<line fill="none" stroke="#000000" stroke-miterlimit="10" x1="183.6" y1="241.3" x2="187.6" y2="209.7"/>
			<line fill="none" stroke="#000000" stroke-miterlimit="10" x1="186.8" y1="241.1" x2="190.8" y2="209.8"/>
			<line fill="none" stroke="#000000" stroke-miterlimit="10" x1="190" y1="240.9" x2="194" y2="209.8"/>
			<line fill="none" stroke="#000000" stroke-miterlimit="10" x1="193.2" y1="240.6" x2="197.2" y2="209.9"/>
			<line fill="none" stroke="#000000" stroke-miterlimit="10" x1="196.5" y1="240.4" x2="200.4" y2="210"/>
			<line fill="none" stroke="#000000" stroke-miterlimit="10" x1="199.7" y1="240.2" x2="203.6" y2="210.1"/>
			<line fill="none" stroke="#000000" stroke-miterlimit="10" x1="202.9" y1="240" x2="206.8" y2="210.1"/>
			<line fill="none" stroke="#000000" stroke-miterlimit="10" x1="206.1" y1="239.8" x2="209.9" y2="210.2"/>
			<line fill="none" stroke="#000000" stroke-miterlimit="10" x1="209.3" y1="239.6" x2="213.1" y2="210.4"/>
			<line fill="none" stroke="#000000" stroke-miterlimit="10" x1="212.5" y1="239.4" x2="216.3" y2="210.4"/>
			<line fill="none" stroke="#000000" stroke-miterlimit="10" x1="215.7" y1="239.1" x2="219.5" y2="210.5"/>
			<line fill="none" stroke="#000000" stroke-miterlimit="10" x1="218.9" y1="239" x2="222.7" y2="210.6"/>
			<line fill="none" stroke="#000000" stroke-miterlimit="10" x1="222.1" y1="238.8" x2="225.9" y2="210.7"/>
		</g>
	</g>
	<g id="stave-1">
		<rect id="staff_1_" x="1.2" y="-32.5" fill="none" stroke="#000000" stroke-miterlimit="10" width="716" height="111.8"/>
		<g id="events_2_">
			<line fill="none" stroke="#000000" stroke-miterlimit="10" x1="11.6" y1="24.6" x2="15.6" y2="-17.4"/>
			<line fill="none" stroke="#000000" stroke-miterlimit="10" x1="14.8" y1="24.3" x2="18.8" y2="-17.3"/>
			<line fill="none" stroke="#000000" stroke-miterlimit="10" x1="18" y1="24" x2="22" y2="-17.2"/>
			<line fill="none" stroke="#000000" stroke-miterlimit="10" x1="21.2" y1="23.7" x2="25.2" y2="-17.1"/>
			<line fill="none" stroke="#000000" stroke-miterlimit="10" x1="24.5" y1="23.4" x2="28.4" y2="-17"/>
			<line fill="none" stroke="#000000" stroke-miterlimit="10" x1="27.7" y1="23.1" x2="31.6" y2="-16.9"/>
			<line fill="none" stroke="#000000" stroke-miterlimit="10" x1="30.9" y1="22.9" x2="34.8" y2="-16.8"/>
			<line fill="none" stroke="#000000" stroke-miterlimit="10" x1="34.1" y1="22.6" x2="37.9" y2="-16.7"/>
			<line fill="none" stroke="#000000" stroke-miterlimit="10" x1="37.3" y1="22.3" x2="41.1" y2="-16.5"/>
			<line fill="none" stroke="#000000" stroke-miterlimit="10" x1="40.5" y1="22" x2="44.3" y2="-16.4"/>
			<line fill="none" stroke="#000000" stroke-miterlimit="10" x1="43.7" y1="21.7" x2="47.5" y2="-16.3"/>
			<line fill="none" stroke="#000000" stroke-miterlimit="10" x1="46.9" y1="21.5" x2="50.7" y2="-16.2"/>
			<line fill="none" stroke="#000000" stroke-miterlimit="10" x1="50.1" y1="21.2" x2="53.9" y2="-16.1"/>
			<line fill="none" stroke="#000000" stroke-miterlimit="10" x1="74" y1="53.2" x2="75.8" y2="62.7"/>
			<line fill="none" stroke="#000000" stroke-miterlimit="10" x1="77.2" y1="52.9" x2="79" y2="62.8"/>
			<line fill="none" stroke="#000000" stroke-miterlimit="10" x1="80.4" y1="52.6" x2="82.1" y2="62.9"/>
			<line fill="none" stroke="#000000" stroke-miterlimit="10" x1="83.6" y1="52.3" x2="85.3" y2="63.1"/>
			<line fill="none" stroke="#000000" stroke-miterlimit="10" x1="86.8" y1="52" x2="88.5" y2="63.2"/>
			<line fill="none" stroke="#000000" stroke-miterlimit="10" x1="90.1" y1="51.8" x2="91.7" y2="63.3"/>
			<path fill="none" stroke="#000000" stroke-miterlimit="10" d="M128.6,48.4"/>
			<line fill="none" stroke="#000000" stroke-miterlimit="10" x1="176" y1="-12.5" x2="178.3" y2="-22.5"/>
			<line fill="none" stroke="#000000" stroke-miterlimit="10" x1="206.8" y1="-12.5" x2="209.1" y2="-22.5"/>
			<line fill="none" stroke="#000000" stroke-miterlimit="10" x1="236.1" y1="-12.4" x2="238.4" y2="-22.7"/>
			<line fill="none" stroke="#000000" stroke-miterlimit="10" x1="239.3" y1="-12.6" x2="241.6" y2="-22.6"/>
			<line fill="none" stroke="#000000" stroke-miterlimit="10" x1="424.5" y1="58" x2="426.8" y2="48"/>
			<line fill="none" stroke="#000000" stroke-miterlimit="10" x1="455.3" y1="58" x2="457.6" y2="48"/>
			<line fill="none" stroke="#000000" stroke-miterlimit="10" x1="484.6" y1="58.1" x2="486.9" y2="47.8"/>
			<line fill="none" stroke="#000000" stroke-miterlimit="10" x1="487.8" y1="57.9" x2="490.1" y2="47.9"/>
			<line fill="none" stroke="#000000" stroke-miterlimit="10" x1="525.7" y1="26.8" x2="528" y2="16.8"/>
			<line fill="none" stroke="#000000" stroke-miterlimit="10" x1="556.5" y1="26.8" x2="558.8" y2="16.8"/>
			<line fill="none" stroke="#000000" stroke-miterlimit="10" x1="585.8" y1="26.9" x2="588.1" y2="16.6"/>
			<line fill="none" stroke="#000000" stroke-miterlimit="10" x1="589" y1="26.7" x2="591.3" y2="16.7"/>
			<line fill="none" stroke="#000000" stroke-miterlimit="10" x1="693.6" y1="36.6" x2="694.6" y2="48.2"/>
			<line fill="none" stroke="#000000" stroke-miterlimit="10" x1="696.8" y1="36.2" x2="697.8" y2="48.5"/>
		</g>
	</g>
</g>
</svg>
